<svg xmlns="http://www.w3.org/2000/svg" xmlns:xlink="http://www.w3.org/1999/xlink" viewBox="0 0 209.21 175"><defs><style>.cls-1{fill:none;}.cls-2{isolation:isolate;}.cls-3{clip-path:url(#clip-path);}.cls-4{fill:#88abac;}.cls-5{fill:#293e4c;}.cls-6,.cls-7{fill:#00aeef;}.cls-15,.cls-6{opacity:0.2;}.cls-7{opacity:0.05;}.cls-8{fill:#c2d3ca;}.cls-18,.cls-8{opacity:0.5;}.cls-14,.cls-9{opacity:0.1;}.cls-10{fill:#46cccc;}.cls-11{fill:#659876;}.cls-12{fill:#ffb127;}.cls-13{fill:#ffce47;}.cls-14,.cls-15{fill:#ffd454;}.cls-14{mix-blend-mode:screen;}.cls-15{mix-blend-mode:multiply;}.cls-16,.cls-18{fill:#f2b233;}.cls-17{fill:#f9d375;}.cls-19{fill:#f4c69d;}.cls-20{fill:#a1dce8;}.cls-21{fill:#2b3b4e;}.cls-22{fill:#c3e8f6;}.cls-23{fill:#324a5e;}.cls-24{fill:#c49a6c;}.cls-25{fill:#454857;}.cls-26{fill:#00233f;}.cls-27{fill:#f9b7b8;}.cls-28{fill:#7c9b89;}.cls-29{fill:#dd4747;}.cls-30{fill:#d18307;}.cls-31{fill:#ffeebd;}.cls-32{fill:#be1e2d;}.cls-33{fill:#71ae87;}.cls-34{fill:#f98d2b;}.cls-35{fill:#8cb0da;}.cls-36{fill:#f44d4d;}.cls-37{fill:#7bcaff;}.cls-38{fill:#3d457d;}.cls-39{fill:#fafefe;}.cls-40{fill:#f0b8d2;}.cls-41{fill:#a7a9ac;}.cls-42{fill:#cdcdd0;}.cls-43{fill:#fff;}.cls-44{fill:#dedde0;}.cls-45{fill:#8b5e3c;}.cls-46{fill:#ef1829;}.cls-47{fill:#ffaf84;}.cls-48{fill:#2c2768;}.cls-49{fill:#332c69;}.cls-50{fill:#2c1e56;}.cls-51{fill:#bcbec0;}.cls-52{fill:#414042;}.cls-53{fill:#333;}</style><clipPath id="clip-path"><circle class="cls-1" cx="-239.73" cy="92.81" r="119.03"/></clipPath></defs><g class="cls-2"><g id="Styles"><g class="cls-3"><rect class="cls-4" x="0.96" y="33.9" width="1.11" height="6.77"/><rect class="cls-4" x="4.92" y="33.9" width="1.11" height="6.77"/><rect class="cls-4" x="-45.34" y="32.63" width="54.73" height="1.58"/><rect class="cls-5" x="-46.13" y="39.69" width="56.32" height="3.04"/></g><circle class="cls-6" cx="203.27" cy="59.53" r="5.93"/><circle class="cls-7" cx="87.5" cy="87.5" r="87.5"/><circle class="cls-6" cx="182.7" cy="23.83" r="5.93"/><ellipse class="cls-8" cx="88.52" cy="142.7" rx="54.09" ry="4.31"/><ellipse class="cls-8" cx="48.28" cy="153.62" rx="18.67" ry="1.49"/><ellipse class="cls-8" cx="15.51" cy="148.49" rx="9.82" ry="1.49"/><ellipse class="cls-8" cx="150.04" cy="142.55" rx="19.52" ry="2"/><g class="cls-9"><path class="cls-10" d="M165.43,93c-2.74-7.65-7.06-10-11.17-14.88-5-6-8.41-10.35-7.1-18.06,2.13-12.6,3-44-30.31-39.91-12,1.47-21.4,10.63-28.27,19.77-5.85,7.78-16.37,8.47-24.84,10.29A124.73,124.73,0,0,0,33.12,60.68C13.3,70.84,7.38,85.45,8.19,104.13c.24,5.65,1,14.54,10.58,25,12.87,14,31.57,15.92,54.09,9.47,5.15-1.48,10-3.79,15.09-5.53a70.53,70.53,0,0,1,16.29-3.54c12.93-1.25,26.33,1,38.73-2.85a40.84,40.84,0,0,0,17.33-10.75A22.1,22.1,0,0,0,165.43,93Z"/></g><path class="cls-11" d="M100.39,108.29a.62.62,0,0,1,0,.33,2,2,0,0,0,0-.74,53.41,53.41,0,0,1,1.47-5.86c.12-.39.26-.77.39-1.16.86-.4,3-.8,3.51-1a11.66,11.66,0,0,0,3.45-1.92c.37-.36,1.23-1.55.68-2.07s-2.54.89-3,1.26a36.26,36.26,0,0,1-3,2.52,10.34,10.34,0,0,0-1.51,1,43.16,43.16,0,0,1,2.11-5c.83-.41,3-.82,3.55-1.06a11.92,11.92,0,0,0,3.46-1.91c.36-.36,1.23-1.56.67-2.08s-2.54.9-3,1.27a36.14,36.14,0,0,1-3,2.51,11.72,11.72,0,0,0-1.5,1,38.68,38.68,0,0,1,2.93-4.92A36.46,36.46,0,0,1,110,87.28c1,0,2.47,0,2.93,0a11.89,11.89,0,0,0,3.84-.94c.45-.25,1.6-1.17,1.2-1.82s-2.69.2-3.23.43a34.3,34.3,0,0,1-3.61,1.62l-.68.19a38,38,0,0,1,3.81-3.69c.43.06.89,0,1.34.06a32,32,0,0,1,3.35.54c.5.07,2.55.35,2.76-.35s-1-1.13-1.41-1.24a10.43,10.43,0,0,0-3.39.07c-.37,0-1.42.4-2.27.6.65-.53,1.3-1,2-1.53A37.82,37.82,0,0,1,120,79.1a8.33,8.33,0,0,0,1.66.11,32,32,0,0,1,3.35.54c.5.07,2.56.35,2.76-.35s-1-1.13-1.41-1.24a10.37,10.37,0,0,0-3.38.07c-.44,0-1.78.52-2.66.69a35,35,0,0,1,4.82-2.2,9.86,9.86,0,0,0,1.44,0,31.78,31.78,0,0,1,3.35.48c.51.07,2.57.3,2.76-.4s-1-1.11-1.44-1.21a10.12,10.12,0,0,0-3.38.13,5.75,5.75,0,0,0-.63.17,27.28,27.28,0,0,0-2.67.64l-.08,0,.07,0A30.21,30.21,0,0,0,121,77.84c.31-.32.57-.71.85-1.06a31.62,31.62,0,0,1,2.43-2.34c.36-.35,1.8-1.82,1.36-2.42s-1.48.09-1.82.37a10.08,10.08,0,0,0-2,2.74c-.25.44-.78,2.15-1.21,2.86a30.57,30.57,0,0,0-3.12,1.6,8.28,8.28,0,0,0,.83-1.38,31,31,0,0,1,2-2.68c.3-.41,1.5-2.09,1-2.61s-1.45.32-1.74.64a10.21,10.21,0,0,0-1.52,3c-.19.5-.47,2.47-.81,3.15-.41.24-.81.49-1.21.75a33.79,33.79,0,0,0-4.65,3.69c0-.32.06-.65.1-1,.15-1.12.58-2.18.84-3.28.12-.5.58-2.51-.1-2.79S111.12,78,111,78.4a10.07,10.07,0,0,0-.23,3.38c0,.43.33,1.77.43,2.67a36.17,36.17,0,0,0-3.8,4.31c.07-.37.14-.75.23-1.09.23-.86.49-1.72.8-2.55a15.17,15.17,0,0,1,1.94-3.67.73.73,0,0,0-.82-1.12l-.08,0c-1.06.45-1.52,1.68-1.86,2.78-.26.84-1.69,5.4-1,6.64a39.06,39.06,0,0,0-3.27,5.73c.16-1.08.57-2.11.82-3.17.12-.49.58-2.51-.11-2.79s-1.2.85-1.35,1.27a10.62,10.62,0,0,0-.23,3.38c0,.39.28,1.51.41,2.38a40.15,40.15,0,0,0-1.75,5c0-.22-.07-.44-.1-.65a32,32,0,0,1,0-3.39c0-.51-.07-2.59-.79-2.69s-1,1.13-1,1.57a10.23,10.23,0,0,0,.62,3.35c.12.41.77,1.64,1.09,2.48-.34,1.3-.63,2.62-.84,3.94-.15-1-.12-2-.22-3,0-.51-.27-2.57-1-2.62s-.86,1.21-.86,1.65a10.24,10.24,0,0,0,.88,3.28c.12.33.63,1.16,1,1.9-.34,2.5-2.58,5-2.48,7.52C97.62,112.66,100,110.47,100.39,108.29Z"/><path class="cls-11" d="M75.32,105.46a.77.77,0,0,0-.06.33,2.63,2.63,0,0,1,0-.74,50.68,50.68,0,0,0-1.46-5.86L73.38,98c-.87-.41-3-.8-3.51-1a11.92,11.92,0,0,1-3.46-1.91c-.36-.36-1.23-1.56-.67-2.08s2.53.9,3,1.27a36.14,36.14,0,0,0,3,2.51,11.23,11.23,0,0,1,1.51,1,44.82,44.82,0,0,0-2.11-5c-.83-.42-3-.82-3.56-1.06a11.79,11.79,0,0,1-3.45-1.92c-.37-.36-1.23-1.55-.67-2.07s2.53.89,3,1.26a33.3,33.3,0,0,0,3,2.52,11.72,11.72,0,0,1,1.5,1,42.11,42.11,0,0,0-2.93-4.93,38.1,38.1,0,0,0-2.42-3.11c-1,0-2.47.06-2.94,0a11.7,11.7,0,0,1-3.84-.94c-.45-.25-1.6-1.17-1.19-1.81s2.69.19,3.23.43a37.38,37.38,0,0,0,3.6,1.62l.69.19a37.92,37.92,0,0,0-3.81-3.69c-.44,0-.9,0-1.34,0a29.6,29.6,0,0,0-3.35.55c-.5.07-2.56.34-2.76-.36s1-1.13,1.41-1.23a10.1,10.1,0,0,1,3.38.07c.38,0,1.43.39,2.27.6-.64-.53-1.3-1-2-1.53a35.22,35.22,0,0,0-3.36-2.12,8.28,8.28,0,0,1-1.66.11,29.8,29.8,0,0,0-3.34.55c-.51.07-2.56.34-2.76-.36s1-1.13,1.41-1.23a10.1,10.1,0,0,1,3.38.07c.44,0,1.78.51,2.66.68a36.24,36.24,0,0,0-4.83-2.19,13.51,13.51,0,0,1-1.43,0,29.37,29.37,0,0,0-3.35.48c-.51.06-2.57.3-2.76-.41s1-1.11,1.43-1.21a10.45,10.45,0,0,1,3.39.14,5.77,5.77,0,0,1,.63.16c.9.17,1.79.39,2.67.64l.08,0-.08,0A31.58,31.58,0,0,1,54.67,75c-.32-.32-.57-.71-.85-1a29.83,29.83,0,0,0-2.43-2.34c-.36-.36-1.8-1.83-1.37-2.42s1.48.09,1.82.37a10,10,0,0,1,2,2.74c.25.43.78,2.14,1.2,2.85a30.81,30.81,0,0,1,3.13,1.61,8.76,8.76,0,0,1-.84-1.38,31.06,31.06,0,0,0-2-2.69c-.3-.41-1.5-2.09-1-2.61s1.45.32,1.74.65a10.09,10.09,0,0,1,1.52,3c.19.49.47,2.47.8,3.14.41.25.82.5,1.22.76a34.17,34.17,0,0,1,4.65,3.68c0-.32-.07-.65-.11-1a29.22,29.22,0,0,0-.84-3.28c-.12-.49-.57-2.51.11-2.79s1.2.85,1.35,1.27A10.07,10.07,0,0,1,65,78.94c0,.43-.34,1.78-.44,2.68a35.48,35.48,0,0,1,3.81,4.31c-.08-.38-.14-.76-.23-1.1-.23-.86-.49-1.71-.8-2.55a15,15,0,0,0-2-3.67.73.73,0,0,1,.83-1.11l.07,0c1.06.45,1.53,1.67,1.87,2.78.25.84,1.68,5.4.95,6.63a38.22,38.22,0,0,1,3.26,5.74,31.37,31.37,0,0,0-.82-3.17c-.11-.5-.57-2.52.11-2.8S72.83,87.57,73,88a10.11,10.11,0,0,1,.23,3.39c0,.38-.27,1.5-.4,2.38a41.09,41.09,0,0,1,1.75,5c0-.21.07-.43.09-.65a29.48,29.48,0,0,0,0-3.39c0-.51.07-2.58.8-2.68s1,1.13,1,1.57a10.38,10.38,0,0,1-.62,3.34c-.12.42-.77,1.64-1.09,2.49q.51,2,.84,3.93c.15-1,.12-2,.22-3,0-.5.27-2.57,1-2.61s.86,1.2.86,1.64a10,10,0,0,1-.88,3.29c-.12.33-.63,1.15-1,1.89.34,2.5,2.57,5,2.48,7.53C78.09,109.82,75.71,107.64,75.32,105.46Z"/><path class="cls-12" d="M72.17,114.85h32a6.65,6.65,0,0,1,6.65,6.65v17.43a0,0,0,0,1,0,0H65.52a0,0,0,0,1,0,0V121.5A6.65,6.65,0,0,1,72.17,114.85Z" transform="translate(0.72 -0.5) rotate(0.33)"/><path class="cls-12" d="M109,28.44l-42.49-.13a3.24,3.24,0,0,0-3,3.14,3.12,3.12,0,0,0,3,3.15l-9.44,0c.28,11,1.17,29.75,9,35.75l6.52,1.05c2,4.08,4.58,7.37,8.08,9.22a1.14,1.14,0,0,0-.47,1c0,.62.62,1.1,1.57,1.73-.95.47-1.58,1.1-1.58,1.73,0,1.26,1.72,2,4.39,2.53-.17,5-.18,10.22-.2,15l-5.82,0,0,4.72,18.89.06v-4.72l-6.77,0c0-4.73,0-10.08-.11-15,2.52-.47,4.41-1.41,4.42-2.51,0-.63-.63-1.26-1.57-1.73.94-.47,1.58-1.1,1.58-1.73,0-.31-.16-.31-.47-.79,12.61-6.72,13.79-31.9,14.46-46.06a3.15,3.15,0,0,0,0-6.29ZM61.57,39.31h5.06c.33,7.46,1.05,16.62,3.22,24.56H66.06C62.93,58.19,61.86,47.18,61.57,39.31Z"/><path class="cls-13" d="M109,34.73a3.15,3.15,0,0,0,0-6.29L88.2,28.38v3.68L77.41,32s-.36,32.26,10.65,42.44L88,106.53l-13.34,0,2.09,6.09h22.7l2.13-6H97.4v-4.2l-6.76,0c0-4.72,0-10.07-.12-15,2.52-.47,4.41-1.4,4.42-2.5,0-.63-.63-1.27-1.57-1.74,1-.47,1.58-1.1,1.58-1.73,0-.31-.16-.31-.47-.78,3.49-1.82,6.1-5.07,8.07-9.12l6-1.07c9.46-6,9.52-24.68,10-35.69ZM108.54,64h-3.21c2.2-7.93,3-17.08,3.38-24.54l5.1,0C113.47,47.34,113.28,58.35,108.54,64Z"/><rect class="cls-12" x="73.35" y="110.98" width="29.67" height="4.36" rx="1.72" transform="translate(0.35 -0.27) rotate(0.18)"/><path class="cls-14" d="M75.35,38.73C74.69,47.37,74.48,66.65,84,79c.49.63-.27,1.51-.86,1-5.23-4.68-12.31-13.79-14.34-29.85a77.33,77.33,0,0,1-.3-12.08,3.63,3.63,0,0,1,3.21-3.5h0A3.66,3.66,0,0,1,75.35,38.73Z"/><path class="cls-15" d="M100.15,38.39c.25,8.67-.46,27.93-10.54,39.71-.51.61.21,1.52.81,1,5.46-4.36,13-13,15.75-29a77.13,77.13,0,0,0,.87-12,3.69,3.69,0,0,0-3-3.69h0A3.61,3.61,0,0,0,100.15,38.39Z"/><path class="cls-16" d="M88.15,36.45s-4.69,5.63-15.48,5.63V55.5a23,23,0,0,0,8.56,18.11,20.75,20.75,0,0,0,6.92,3.64,20.75,20.75,0,0,0,6.92-3.64,23,23,0,0,0,8.55-18.11V42.08c-10.78,0-15.47-5.63-15.47-5.63Zm0,0"/><path class="cls-17" d="M75.19,44.94v11.3A19.34,19.34,0,0,0,82.4,71.48a17.57,17.57,0,0,0,5.82,3.07V40.2S84.23,44.94,75.19,44.94Z"/><path class="cls-13" d="M94.05,71.48a19.33,19.33,0,0,0,7.2-15.24V44.94c-9.08,0-13-4.74-13-4.74h0V74.55h0A17.52,17.52,0,0,0,94.05,71.48Z"/><rect class="cls-18" x="82.47" y="52.63" width="11.36" height="2.21" rx="1.11"/><rect class="cls-18" x="82.47" y="56.85" width="11.36" height="2.21" rx="1.11"/><rect class="cls-18" x="82.47" y="61.07" width="11.36" height="2.21" rx="1.11"/><rect class="cls-17" x="72.4" y="118.33" width="30.04" height="17.11" rx="8.55"/><rect class="cls-16" x="64.02" y="138.38" width="48.1" height="3.66"/><path class="cls-19" d="M127.11,140l4.67-.91c1,3,.57,6.13.85,9.2.18,2.05,0,4.25,2,5.7-1.39,1.41-3.27.35-4.81,1a1,1,0,0,1-1-.45c-1.26-3.91-1.53-8-2.25-12A2.93,2.93,0,0,1,127.11,140Z"/><path class="cls-19" d="M119.17,140l5.28.1c1.55,4.16,1.65,8.48,1.5,12.83-.08.39.07,1.33-.14,1.66-1.49,1.25-3.53.05-5.19,0a1.42,1.42,0,0,1-.83-.69,2.53,2.53,0,0,0,1.41-3.22C120.37,147.15,119.83,143.55,119.17,140Z"/><path class="cls-19" d="M119.29,110.34c-.06.25-.13.51-.2.76a29.57,29.57,0,0,1-3,.38c-2.13.07-4.12-.5-4.78-2.74-.94-3.16-.36-6.36.42-9.5a1,1,0,0,1,1.22-.8,1,1,0,0,1,.7,1.3,11.19,11.19,0,0,0-.27,4.25c.82,4.17.79,4.23,4.88,3.16C119.72,107.88,119.48,109.12,119.29,110.34Z"/><path class="cls-20" d="M119.29,110.34c-.33-1.06-.65-2.12-1-3.19a5,5,0,0,1,2.77-1.47c.76.13,1.4.43.55,1.17A9.73,9.73,0,0,0,119.29,110.34Z"/><path class="cls-21" d="M128.79,154.45c1.72-1.35,3.75-.18,5.57-.67l1.58.83q.33.36.12.57a.46.46,0,0,1-.33.18h-5.9C129.44,155.11,128.9,155,128.79,154.45Z"/><path class="cls-21" d="M118.69,154.64l1.58-1,.08.33c2,.65,3.66,0,5.71.41q.6.52-.06,1c-2.55,0-4.64,0-7.19,0C118.25,155.19,118.21,155,118.69,154.64Z"/><path class="cls-11" d="M133.18,137.16c-.9-4.7-.52-9.57-1.87-14.21-.06-.58-.13-1.17-.2-1.75.21-2.59-1.47-4.34-2.75-6.27-3.54,2-7.34,3.45-11,5.15a1.43,1.43,0,0,0-.63,1.43c.64,1.68.37,3.41.33,5.13,0,.15.41,9.22,2.14,13.34,1.53,1.27,3.35.91,5.11.93a23.26,23.26,0,0,0,2.89-.1c1.6-.42,3.44-.18,4.61-1.74C132.42,138.57,133.42,138.41,133.18,137.16Z"/><path class="cls-11" d="M123.26,114.69a9.43,9.43,0,0,1-4.12-.82,8.77,8.77,0,0,0-1.51,4C119.94,117.57,122.11,117,123.26,114.69Z"/><path class="cls-19" d="M128.36,114.93c-2,2.89-5.12,3.89-8.34,4.71-1.21.31-2.79.4-2.81,2.28.34,1.75-.12,2-.82,1.43-3.31-2.85.67-3.73,1.23-5.48,1.71-1.32,4.28-1.57,5-4.08-.25-3.87,3.56-4.17,5.43-6.19,2.05,1.67,1.22,3.27-.12,4.85A3.42,3.42,0,0,0,128.36,114.93Z"/><path class="cls-22" d="M128,108c-.28.77.14,2.37-.78,2.23-3.84-.58-3,2.63-4,4.45-1.56.7-3,.94-4.12-.82l0-2.77a1.14,1.14,0,0,1-.29-.83c0-1.88,1.9-2.87,2.27-4.59.49-.67,1.26-.63,2-.76a3.91,3.91,0,0,1,3-.62C127.9,104.87,129,105.9,128,108Z"/><path class="cls-23" d="M128,108a2.79,2.79,0,0,0-2.16-3.07c-1.22-.82-1-2.77-2.66-3.27a4.18,4.18,0,0,1-.64-.62c1.06-1.86,3.15-1.88,3.66-.43,1.1,3.14,4.35,4.59,5.27,7.73.36,1.21,1.68,2.26.45,3.61s-2.59,1-4,.49C128,111,128.73,109.5,128,108Z"/><path class="cls-19" d="M123,101c3.13-.28,2.5,2.19,2.89,3.93l-2.83,0,.12-1A2.6,2.6,0,0,1,123,101Z"/><path class="cls-23" d="M123,101l.18,2.89c-1.54-.67-1.65-1.64-.59-2.85A2.71,2.71,0,0,0,123,101Z"/><path class="cls-23" d="M35.17,149.83c-.89-.94-.5-2-.22-3,1.88-7.19,1.69-14.59,2.14-21.92.18-3,.67-5.89,1-8.84.7-1.48,2-1.45,3.32-1.27,2.28.43,4.47,1.69,6.9.75.82-.29,1.42-1.06,2.36-1.06a1.52,1.52,0,0,1,.83.73c2.18,7.33,3.12,14.91,4.51,22.41.07,2.18.69,4.37-.15,6.53l.16,2.19c.69,2,.33,3.65-1.87,4.25a3.65,3.65,0,0,1-4.63-2.36,20.31,20.31,0,0,1-1.49-5.9c-.53-4.57-2.32-9-2.25-13.3A70.15,70.15,0,0,1,42,146.21c-.62,1.81-1.26,3.65-3.34,4.39A3.37,3.37,0,0,1,35.17,149.83Z"/><path class="cls-24" d="M45.2,99.53c-1,1.24-2.29.7-3.5.72l.49-1.39a3.39,3.39,0,0,1,1.64-3.81c.74-.19,1.48-.42,2,.42Z"/><path class="cls-24" d="M68.82,101.09l-.65.76c-1,1-1.3,3-3.46,2.19l-.84-2.12c1.12-1.37,2.82-1.6,4.31-2.25l.62.82c.24.13.32.26.25.39S68.9,101.09,68.82,101.09Z"/><path class="cls-25" d="M59.6,152.1h0c-.24-1.19-2-1.22-2.76-2A13.22,13.22,0,0,1,55,150c-2.42-.45-4.14-.16-4,2.1-.16.69.14,1,1.15.87,2.4-.75,5.43,1.54,7.48-.87Z"/><path class="cls-26" d="M43.8,95.64c.18,1.43-2.08,1.65-1.61,3.22-1.46-2.13-1.46-3.74,1.54-4.27A.63.63,0,0,1,43.8,95.64Z"/><path class="cls-27" d="M38.69,150v1.25c-1.15,1.27-2.36,1-3.59.14l-.22-.21.3-1.31Z"/><path class="cls-26" d="M43.8,95.64l-.07-1c.86-.58,1.78-1.46,2.79-.55.44.4-.21,1-.68,1.43Z"/><path class="cls-24" d="M35.2,123.23h0c0-.25-.05-.51-.08-.76l-1.44.15a7.24,7.24,0,0,0,.7,3.6c0,.61.27,1.44.92.64A2.77,2.77,0,0,0,35.2,123.23Z"/><path class="cls-28" d="M63.87,101.92c-4.11,2-8,3.44-11.74-1.08-1.56-1.89-4.37-2.16-6.93-1.31a4.57,4.57,0,0,0-3.5.72A7.5,7.5,0,0,0,34.84,103c-4.11,4.81-4.76,14.18-1.16,19.58.53.41,1,.44,1.44-.16,0-4.41-.48-8.93,2-13.22,1.73,2.37.65,4.68,1,6.83a4.29,4.29,0,0,1,3.54-.54c2.33,1,4.68,1.85,7.23.71,1,.07,2.73-2.07,2.7-2.53-.3-4.37,2.25-4.71,5.77-4.6s6.52-1.15,7.88-4.81C65.25,103.23,65,102.31,63.87,101.92Z"/><path class="cls-25" d="M34.87,151.14l4.7-.18c1.4.11,2.88.34,3.39,1.8.39,1.09-.85.94-1.5,1.17-1.49-.09-3-.29-4.47-.25C35.11,153.72,34.61,152.79,34.87,151.14Z"/><polygon class="cls-29" points="99.23 49.75 95.28 62 99.73 59.29 102.06 63.95 105.33 51.72 99.23 49.75"/><polygon class="cls-29" points="102.35 48.28 108.05 59.82 109.35 54.77 114.28 56.48 108.1 45.43 102.35 48.28"/><polygon class="cls-16" points="98.19 47.06 96.91 49.31 97.83 51.55 100.64 51.57 102.62 53.57 105.12 52.45 105.76 50.26 98.19 47.06"/><polygon class="cls-30" points="107.64 51.85 105.16 51.17 102.93 52.44 101.13 50.61 98.56 50.59 97.91 48.11 95.7 46.81 96.38 44.33 95.11 42.1 96.94 40.3 96.96 37.73 99.44 37.09 100.74 34.87 103.22 35.55 105.45 34.29 107.25 36.11 109.82 36.13 110.47 38.61 112.68 39.92 112 42.39 113.27 44.62 111.44 46.42 111.42 48.99 108.94 49.64 107.64 51.85"/><circle class="cls-16" cx="104.19" cy="43.36" r="5.59"/><circle class="cls-13" cx="104.19" cy="43.36" r="4.12"/><circle class="cls-31" cx="106.43" cy="41.87" r="1.96"/><circle class="cls-4" cx="43.33" cy="46.65" r="2.33"/><circle class="cls-32" cx="58.88" cy="25.07" r="2.33"/><circle class="cls-33" cx="28.28" cy="75.15" r="2.33"/><circle class="cls-34" cx="16.63" cy="52.4" r="2.33"/><circle class="cls-33" cx="130.53" cy="56.85" r="2.33"/><circle class="cls-4" cx="137.22" cy="35.02" r="2.33"/><circle class="cls-28" cx="151.27" cy="84.69" r="2.33"/><circle class="cls-35" cx="134.58" cy="92.7" r="2.33"/><circle class="cls-34" cx="158" cy="63.88" r="2.33"/><path class="cls-36" d="M10.69,143.93c-1.24-5.74-1.59-11.61-2.2-17.43-.27-2.59-1.23-5.22-.08-7.85,1-.79.54-1.86.56-2.85,0-.17-.06-.35-.09-.52A2.08,2.08,0,0,1,9.34,113a1.64,1.64,0,0,1,.76-.4,3.32,3.32,0,0,1,.89,0c2,.53,4.27-.4,6.16,1,.72,4,2.49,7.57,4,11.24A15.86,15.86,0,0,1,22,135.56c-.84,2.92-.93,6-2.22,8.82a.72.72,0,0,1-.92.32c-1.24.51-2-.84-2.38-1.41.2-3.69.21-7.41.69-11.07.24-1.87-.39-2.83-2.07-3.92-.55,5.34-1.08,10.45-1.61,15.56A2.14,2.14,0,0,1,10.69,143.93Z"/><path class="cls-37" d="M17.15,113.5c-2.33-.2-4.7.34-7-.49-1-1.46.19-2.09,1.06-2.84a6.29,6.29,0,0,0,2.45-3.6,3.91,3.91,0,0,1,1.82-2.68c2,.88,4,1.71,6,2.67s3.15.53,3.4-1.83a2.83,2.83,0,0,1,.75-2.1c.66-.28,1,.07,1.21.64,0,.28,0,.56,0,.84,0,6.17-.26,6.45-6.45,5.51-1.36-.21-2.14,0-2.34,1.55A10,10,0,0,1,17.15,113.5Z"/><path class="cls-37" d="M11.24,103.37c.31,1.46-.84,2.2-1.55,3.16s-1.24,1.91-.72,3.14c.61,1.44,1.83,1,2.93,1-.72.68-2.11.87-1.72,2.35l-.29,0L9.62,113l-.09-.15.1.14-.75,2.31c-4.47-1.84-4.61-6.52-.3-9.87Z"/><path class="cls-27" d="M10.69,143.93l2.84-.07c-.79,1.22,0,2,.73,2.88a2.91,2.91,0,0,1-3.53,0Z"/><path class="cls-38" d="M10.73,146.76a8.4,8.4,0,0,0,3.53,0l1.59,1.07H10.34c-.44,0-.5-.2-.17-.49Z"/><path class="cls-38" d="M17,146.61a7.15,7.15,0,0,0,3.47,0l1.57,1.22H16.63c-.43,0-.49-.23-.16-.56Z"/><path class="cls-32" d="M9,115.8c.79,1.15,1.35,2.25-.56,2.85C8.46,117.68,8.19,116.63,9,115.8Z"/><path class="cls-27" d="M19.82,144.38l-1.05.07H18.2l-1.68-1.16c.2.58.4,1.17.59,1.75h0l0,1.13a2.94,2.94,0,0,0,0,.51,2.57,2.57,0,0,0,3.51-.05A3.77,3.77,0,0,1,19.82,144.38Z"/><path class="cls-32" d="M15.25,117.52c-.41.71-.34,2-1.61,1.89S12.23,118,12.14,117s.76-1.19,1.57-1.16A1.44,1.44,0,0,1,15.25,117.52Z"/><path class="cls-39" d="M9.63,113c-.44-.29-1-.48-1-1.12,0-.33.24-.5.53-.32.56.33.35,1,.49,1.45Z"/><path class="cls-23" d="M15.51,103.89c-1,2.35-1.2,5.16-3.61,6.77-1.23.46-2.4.64-3.24-.68s-.3-2.34.26-3.48,2.09-1.69,2.32-3.13a9.59,9.59,0,0,0,.53-1.84c.14-1.35,1-1.66,2.13-1.68,1.47,0,1.27.84,1.19,1.86A7.78,7.78,0,0,0,15.51,103.89Z"/><path class="cls-40" d="M26.85,103.27l-1.21-.64c.19-1.22.33-3.36,1.56-2.89C28.69,100.31,27.08,102,26.85,103.27Z"/><path class="cls-41" d="M26.46,90.88l-1.85.28h0l-1.35,2h0l1.26,8.36L28,101Z"/><rect class="cls-41" x="27.2" y="90.56" width="3.5" height="10.25" transform="translate(-13.9 5.37) rotate(-8.55)"/><path class="cls-42" d="M26.63,97.31l-1.81.46L24.64,97l1.81-.45-.19-.73-1.81.46-.18-.73,1.81-.46-.19-.72-1.8.45-.19-.72,1.81-.46-.8-3.15-1.8.46h0L22,93.12h0L24,101.32l3.39-.86Z"/><rect class="cls-43" x="25.41" y="91.99" width="1.87" height="0.75" transform="translate(-21.82 9.27) rotate(-14.18)"/><rect class="cls-43" x="23.94" y="93.67" width="3.73" height="0.75" transform="translate(-22.25 9.19) rotate(-14.18)"/><rect class="cls-43" x="24.3" y="95.12" width="3.73" height="0.75" transform="translate(-22.6 9.32) rotate(-14.18)"/><rect class="cls-43" x="24.7" y="96.8" width="1.91" height="0.75" transform="translate(-23.02 9.24) rotate(-14.18)"/><polygon class="cls-44" points="24.91 90.53 25.34 92.23 27.15 91.77 27.34 92.5 25.53 92.95 25.71 93.68 27.52 93.22 27.7 93.95 25.89 94.41 26.08 95.13 27.89 94.68 28.07 95.4 26.26 95.86 26.26 95.86 26.89 98.34 26.89 98.34 27.43 100.47 30.82 99.61 28.31 89.67 24.91 90.53"/><rect class="cls-43" x="24.67" y="96.58" width="3.73" height="0.75" transform="translate(-22.94 9.45) rotate(-14.18)"/><path class="cls-25" d="M23.54,90.67a.83.83,0,0,0-.61-.13.7.7,0,0,0-.49.33.74.74,0,0,0-.09.58l.53,2.16s0,0,0,0a0,0,0,0,1,0,0,.74.74,0,0,0,.27.36.61.61,0,0,0,.45.1.54.54,0,0,0,.43-.67l-.54-2.18a.14.14,0,0,0-.07-.1.14.14,0,0,0-.11,0,.21.21,0,0,0-.1.06.14.14,0,0,0,0,.11l.54,2.19a.26.26,0,0,1-.21.32.32.32,0,0,1-.35-.22s0,0,0,0,0,0,0,0l-.55-2.18a.47.47,0,0,1,.37-.57.56.56,0,0,1,.38.08h0l.12,0,.21,0A1,1,0,0,0,23.54,90.67Z"/><path class="cls-11" d="M28.89,98.7h0l-.14,0h0l-1.3.31a.19.19,0,0,1-.17,0s0,0,0,0a.2.2,0,0,0,0-.16.18.18,0,0,0-.05-.16.36.36,0,0,0-.43-.14l-1.13.28-.32.07-.17.05h-.05a.17.17,0,0,0-.07.13.17.17,0,0,0,.16.17h.14l1.46-.36a.19.19,0,0,1,.17,0s0,0,0,0a.21.21,0,0,0,0,.24c0,.17.2.29.44.23l1-.25.35-.09.14,0h0a.17.17,0,0,0,.11-.16A.16.16,0,0,0,28.89,98.7Z"/><path class="cls-40" d="M26.85,103.27l-1.21-.64c.19-1.22.33-3.36,1.56-2.89C28.69,100.31,27.08,102,26.85,103.27Z"/><polygon class="cls-45" points="158.89 124.87 161.36 141.18 158.89 141.18 157.65 124.87 158.89 124.87"/><polygon class="cls-45" points="149.56 124.87 147.09 141.18 149.56 141.18 150.79 124.87 149.56 124.87"/><rect class="cls-46" x="153.06" y="125.66" width="8.27" height="2.1"/><path class="cls-47" d="M149,127.88l4.37,0c.16.84.33,1.67.5,2.51,1.49,2.93,1.33,6.15,1.58,9.29a2,2,0,0,1-.88,1.68,7.1,7.1,0,0,1-3.77.12c-.27-3.76-1.49-7.33-2.3-11a4.81,4.81,0,0,1,0-1.56A2,2,0,0,1,149,127.88Z"/><path class="cls-48" d="M150,141.86a.7.7,0,0,1,.45-.74l4-.24c.72.25.55.7.25,1.17C153.14,141.85,151.52,142.58,150,141.86Z"/><path class="cls-49" d="M135.33,141.21l1-.24c1.75,0,3.44-1.72,5.24-.2l0,.8c-2,1.08-4,.5-6.07.45C135.46,142,135.4,141.49,135.33,141.21Z"/><path class="cls-50" d="M154,106.23c1-1.21,2-.74,2.94,0a3.48,3.48,0,0,0,1.52,3c1.35.82,2.89,1.5,3,3.44a.87.87,0,0,1-.62.17c-1.2-.54-2.2-1.45-3.51-1.77C155.45,109.87,155.84,107.27,154,106.23Z"/><path class="cls-47" d="M142.83,127.76l6.19.12c0,.36-5.65,9.08-7.44,12.89l-5.24.2C139.11,139.89,142,130.15,142.83,127.76Z"/><path class="cls-51" d="M145.11,122c0-.3,0-.61,0-.91l-.06-.23a2.62,2.62,0,0,1,.74-.39c2.18-.46,4.44.18,6.62-.46a11.13,11.13,0,0,1,2.08-.23c2.09.1,4.2-.25,6.27.28a1,1,0,0,1,.55.61l-.45,1.24Z"/><path class="cls-47" d="M162.47,117.89l-.27,2.48-.91.28a.69.69,0,0,1,0-.25,23.52,23.52,0,0,0-3.68-.9c-.57-.12-1.68,0-1.13-1.23,1.16-.43,2.29-.66,2.43-2.4s1.34-2.47,3.12-1.87C163.4,115.17,162.42,116.58,162.47,117.89Z"/><path class="cls-36" d="M160.87,112.58l.83,1.21c-1.56.69-2.88,1.49-2.17,3.58.36,1.06-.33,1.22-1.19,1.18-.63,0-1.28,0-1.92,0-1.74,1.14-3.53.08-5.3.11a1.52,1.52,0,0,1-.67-1.21c-.13-1,.2-2.14-.77-2.93a1.61,1.61,0,0,1-.29-.55,5.17,5.17,0,0,1,3.67-3.2c1.47-.09,2.95.28,4.42-.06C159,110.62,159.92,111.64,160.87,112.58Z"/><path class="cls-47" d="M157.48,110.72a3.48,3.48,0,0,1-4.42.06l.55-.55c.53-1.32-.56-2.77.33-4.06v.06c1.26.51,2.61.89,2.41,2.76C156.29,109.73,156.9,110.27,157.48,110.72Z"/><path class="cls-50" d="M153.94,106.17c-.44,1.33.95,2.8-.33,4.06C153.67,108.87,152.36,107.4,153.94,106.17Z"/><path class="cls-47" d="M151.09,118.35c1.8-.55,3.55.27,5.33.21a22,22,0,0,0,4.17.83c1.07,0,.59.62.74,1a38.72,38.72,0,0,1-6.81,0c-1.16-.63-2.31,0-3.46,0a2.52,2.52,0,0,1-1.55-.32,1,1,0,0,1-.16-1.14C149.83,118.49,150.3,118,151.09,118.35Z"/><path class="cls-41" d="M149.52,119.89l1.53.09c.38.51,1.18-.06,1.52.58-2.29.71-4.64.27-7,.3a2.26,2.26,0,0,1,0-.45c.75-.45,1.77.13,2.45-.61A1.43,1.43,0,0,1,149.52,119.89Z"/><path class="cls-52" d="M152.57,120.56c-.49-.25-1.18.06-1.52-.58,1.18,0,2.41-.43,3.47.47Z"/><path class="cls-47" d="M147.67,119.85a2.31,2.31,0,0,1,.18-.35,6.28,6.28,0,0,0,1.24-1.34,9,9,0,0,1,1.84-1.18c.25-1.28.55-2.59-1.33-2.9h0l-.21-.1c-.61.7-3,5-3.9,6a1.14,1.14,0,0,0,.52.4,2,2,0,0,0,1.62-.24l.06-.1A.7.7,0,0,1,147.67,119.85Z"/><path class="cls-52" d="M147.67,119.85a.63.63,0,0,1,.34.16c-.69.73-1.57.36-2.38.4a.54.54,0,0,1,.07-.41Z"/><path class="cls-53" d="M160.79,122c.58.51,2,.38,1.46,1.76s-1.12,2.8-2.86,3a26.16,26.16,0,0,1-3.43,0,2.6,2.6,0,0,0-2.57,1.07c-1.33,1.07-2.88.66-4.37.7-2.07-.13-4.19.43-6.21-.42-.51-.52-.6-1,.17-1.33,1.7.72.27-3.76,2.44-5.33,5-.18,10.05-.7,15.06.2C160.58,121.77,160.69,121.88,160.79,122Z"/></g></g></svg>