<svg xmlns="http://www.w3.org/2000/svg" xmlns:xlink="http://www.w3.org/1999/xlink" viewBox="0 0 238.24 255.29"><defs><style>.cls-1{fill:none;}.cls-2{fill:#27aae1;opacity:0.4;}.cls-16,.cls-3{fill:#d8f4f2;}.cls-4{fill:#77af86;}.cls-15,.cls-38,.cls-39,.cls-4,.cls-5{fill-rule:evenodd;}.cls-5{fill:#87c496;}.cls-6{clip-path:url(#clip-path);}.cls-7{fill:#bcbec0;}.cls-8{fill:#507c5d;}.cls-9{fill:#fff;}.cls-10{fill:#293e4c;}.cls-11{fill:#324a5e;}.cls-12{fill:#666;}.cls-13{fill:#c69c6d;}.cls-14{fill:#a67c52;}.cls-15{fill:#97d3a3;}.cls-16,.cls-18{opacity:0.5;}.cls-17,.cls-18{fill:#e7f7f5;}.cls-19{clip-path:url(#clip-path-2);}.cls-20{fill:#71ae87;}.cls-21{fill:#659876;}.cls-22{fill:#ff0;}.cls-23{fill:#2b3b4e;}.cls-24{fill:#333;}.cls-25{fill:#1b1464;}.cls-26{fill:#fbb03b;}.cls-27{fill:#ed1c2e;}.cls-28{fill:#555966;}.cls-29{fill:#00233f;}.cls-30{fill:#231f20;}.cls-31{fill:#e6e7e8;}.cls-32{fill:#96e0de;}.cls-33{fill:#76cdce;}.cls-34{fill:#ccc;}.cls-35{fill:#fbb040;}.cls-36{fill:#b3b3b3;}.cls-37{fill:#999;}.cls-38{fill:#f0684e;}.cls-39{fill:#c7452b;}.cls-40{fill:#e6e6e6;stroke:#999;stroke-linecap:round;stroke-miterlimit:10;stroke-width:1.6px;}.cls-41{fill:#ffce47;}.cls-42{fill:#88abac;}</style><clipPath id="clip-path"><circle class="cls-1" cx="119.09" cy="136.26" r="119.03"/></clipPath><clipPath id="clip-path-2"><circle class="cls-1" cx="119.03" cy="136.16" r="119.03"/></clipPath></defs><g id="Styles"><circle class="cls-2" cx="119.21" cy="136.16" r="119.03"/><path class="cls-3" d="M172.71,16.17H151.78a4,4,0,1,1,0-8.08h.7a4,4,0,1,0,0-8.09H76.23a4,4,0,0,0,0,8.09H95.82a4,4,0,1,1,0,8.08H88.38a4,4,0,0,0,0,8.09h84.33a4,4,0,0,0,0-8.09Z"/><path class="cls-4" d="M58.82,119a8.51,8.51,0,0,0,2.64,1c3.22.68,6.2-.51,6.65-2.66.36-1.69-1-3.47-3.09-4.48a3.78,3.78,0,0,0,3-2.62c.45-2.15-1.79-4.45-5-5.13l-.39-.07a2.67,2.67,0,0,0,.21-.62c.45-2.15-1.79-4.44-5-5.12a8.62,8.62,0,0,0-1.92-.19c.09-2-2.06-4.06-5.07-4.7-3.22-.68-6.2.51-6.66,2.66l0,.18a8.23,8.23,0,0,0-.92-.25c-3.22-.68-6.2.51-6.65,2.66a3.07,3.07,0,0,0,.49,2.32,3.28,3.28,0,0,0-1.75,2.1,8.55,8.55,0,0,0-1.21-.35c-3.22-.68-6.2.51-6.65,2.66s1.79,4.44,5,5.12c.15,0,.3.06.46.09.22,1.85,2.27,3.64,5.05,4.22a8.13,8.13,0,0,0,.95.15c-.17,2.05,2,4.15,5.06,4.79,2.49.53,4.83-.06,6-1.35a8.2,8.2,0,0,0,2.74,1.1C55.29,121.08,57.74,120.4,58.82,119Z"/><path class="cls-5" d="M50.6,113.87a8.35,8.35,0,0,0,2.63,1c3.22.68,6.2-.51,6.66-2.66.35-1.69-1-3.47-3.1-4.48a3.77,3.77,0,0,0,3-2.62c.46-2.15-1.79-4.44-5-5.12l-.39-.08a2.53,2.53,0,0,0,.22-.62c.43-2-1.6-4.24-4.6-5-2.89-.34-5.42.83-5.84,2.79l0,.18a8.23,8.23,0,0,0-.92-.25c-3.22-.68-6.2.51-6.65,2.66a3.07,3.07,0,0,0,.49,2.32,3.28,3.28,0,0,0-1.75,2.1,8.55,8.55,0,0,0-1.21-.35c-3.22-.68-6.2.51-6.65,2.66-.35,1.66.91,3.41,3,4.43l.25,0V111a8.73,8.73,0,0,0,1.77.57c.15,0,.3.06.46.09.22,1.85,2.27,3.64,5.05,4.22h0a5.41,5.41,0,0,0,3.75-1.53,8.5,8.5,0,0,0,2.74,1.09C47.07,116,49.51,115.29,50.6,113.87Z"/><path class="cls-4" d="M124.67,140.85a8.35,8.35,0,0,0,2.63,1c3.22.68,6.2-.51,6.66-2.66.35-1.69-1-3.47-3.1-4.48a3.77,3.77,0,0,0,3-2.62c.46-2.15-1.79-4.45-5-5.13l-.39-.07a2.69,2.69,0,0,0,.22-.62c.45-2.15-1.8-4.44-5-5.12a8.56,8.56,0,0,0-1.92-.19c.1-2-2.06-4.06-5.07-4.7-3.22-.68-6.2.51-6.65,2.66a1.16,1.16,0,0,0,0,.18,8.68,8.68,0,0,0-.91-.25c-3.23-.68-6.21.51-6.66,2.66a3.16,3.16,0,0,0,.49,2.32,3.27,3.27,0,0,0-1.74,2.1,9.39,9.39,0,0,0-1.21-.35c-3.22-.68-6.21.51-6.66,2.66s1.79,4.44,5,5.12l.46.09c.22,1.85,2.27,3.63,5,4.22a8.13,8.13,0,0,0,1,.15c-.17,2.05,2,4.15,5.07,4.79,2.48.53,4.83-.06,6-1.35a8.28,8.28,0,0,0,2.74,1.09C121.14,142.93,123.58,142.26,124.67,140.85Z"/><path class="cls-5" d="M116.44,135.73a8.45,8.45,0,0,0,2.63,1c3.23.68,6.21-.51,6.66-2.66.36-1.69-1-3.47-3.09-4.48a3.78,3.78,0,0,0,3-2.62c.45-2.15-1.79-4.44-5-5.12l-.38-.08a3,3,0,0,0,.21-.62c.43-2.05-1.6-4.24-4.59-5-2.9-.34-5.43.83-5.84,2.79a1.16,1.16,0,0,0,0,.18,8.68,8.68,0,0,0-.91-.25c-3.23-.68-6.21.51-6.66,2.66a3.16,3.16,0,0,0,.49,2.32,3.27,3.27,0,0,0-1.74,2.1,9.39,9.39,0,0,0-1.21-.35c-3.22-.68-6.21.51-6.66,2.66-.35,1.66.91,3.41,3,4.43l.25,0a.28.28,0,0,0,0,.09,8.94,8.94,0,0,0,1.77.57l.46.09c.22,1.85,2.27,3.63,5,4.22h0a5.42,5.42,0,0,0,3.75-1.52,8.32,8.32,0,0,0,2.74,1.09C112.91,137.82,115.36,137.14,116.44,135.73Z"/><g class="cls-6"><circle class="cls-7" cx="27.01" cy="305.48" r="198.23"/><circle class="cls-8" cx="57.09" cy="319.2" r="198.23"/><rect class="cls-9" x="119.39" y="106.52" width="143.22" height="61.46"/><rect class="cls-10" x="125.82" y="111.32" width="130.36" height="56.67"/><rect class="cls-11" x="125.82" y="111.32" width="130.36" height="29.45"/><rect class="cls-11" x="127.51" y="101.54" width="128.42" height="17.78"/><rect class="cls-9" x="119.39" y="106.52" width="143.22" height="16.01"/><rect class="cls-9" x="130.83" y="115.55" width="1.43" height="52.43"/><rect class="cls-9" x="138.26" y="115.55" width="1.43" height="52.43"/><rect class="cls-9" x="145.69" y="115.55" width="1.43" height="52.43"/><rect class="cls-9" x="153.12" y="115.55" width="1.43" height="52.43"/><rect class="cls-9" x="160.56" y="115.55" width="1.43" height="52.43"/><rect class="cls-9" x="167.99" y="115.55" width="1.43" height="52.43"/><rect class="cls-9" x="175.42" y="115.55" width="1.43" height="52.43"/><rect class="cls-9" x="182.85" y="115.55" width="1.43" height="52.43"/><rect class="cls-9" x="190.29" y="115.55" width="1.43" height="52.43"/><rect class="cls-9" x="197.72" y="115.55" width="1.43" height="52.43"/><rect class="cls-9" x="205.15" y="115.55" width="1.43" height="52.43"/><rect class="cls-9" x="212.58" y="115.55" width="1.43" height="52.43"/><rect class="cls-9" x="220.01" y="115.55" width="1.43" height="52.43"/><rect class="cls-9" x="227.45" y="115.55" width="1.43" height="52.43"/><rect class="cls-9" x="234.88" y="115.55" width="1.43" height="52.43"/><rect class="cls-9" x="119.39" y="155.56" width="143.22" height="1.94"/><rect class="cls-8" x="159.22" y="159.1" width="77.26" height="36.79"/></g><path class="cls-12" d="M46.23,162.85a1.24,1.24,0,0,0,1.07-1.37,1.22,1.22,0,0,0-1.36-1.06h-.19a3.14,3.14,0,0,1-2-.8,3.91,3.91,0,0,1-1.29-2.54,4.45,4.45,0,0,1,0-.56,1.23,1.23,0,1,0-2.45,0,6.15,6.15,0,0,0,.06.84,6.3,6.3,0,0,0,2.13,4.09,5.6,5.6,0,0,0,3.6,1.4Z"/><path class="cls-13" d="M48.25,172.34a1.64,1.64,0,1,1-3.22-.66,102.43,102.43,0,0,0,1.23-15.23,71.69,71.69,0,0,0-.72-13,1.64,1.64,0,1,1,3.23-.59,74,74,0,0,1,.78,13.69A105.92,105.92,0,0,1,48.25,172.34Z"/><path class="cls-4" d="M55.21,129.54a8.29,8.29,0,0,1,3.94,7,7.7,7.7,0,0,1-.19,1.67,8.51,8.51,0,0,1,5,7.58c0,4.71-4.37,8.5-9.71,8.53a10,10,0,0,1-8.88,4.86,10.59,10.59,0,0,1-6.51-2.22,11.6,11.6,0,0,1-2.73.32c-5.41,0-9.77-3.92-9.74-8.67a8.46,8.46,0,0,1,4.81-7.35,7.73,7.73,0,0,1-.39-2.46A8.62,8.62,0,0,1,36.53,131a7.58,7.58,0,0,1-.71-3.27c0-4.76,4.44-8.58,9.85-8.54s9.76,3.92,9.73,8.67A7.7,7.7,0,0,1,55.21,129.54Z"/><path class="cls-5" d="M55.21,129.54a8.29,8.29,0,0,1,3.94,7,7.7,7.7,0,0,1-.19,1.67,8.51,8.51,0,0,1,5,7.58,7.73,7.73,0,0,1-.44,2.5,11.62,11.62,0,0,1-2.67.34A10,10,0,0,1,52,153.45a10.56,10.56,0,0,1-6.5-2.23,11.09,11.09,0,0,1-2.73.32c-5.41,0-9.77-3.92-9.74-8.67a8.47,8.47,0,0,1,4.81-7.35,7.71,7.71,0,0,1-.39-2.45,8.61,8.61,0,0,1,5.69-7.75,7.6,7.6,0,0,1-.28-5.78,10.9,10.9,0,0,1,2.82-.34c5.41,0,9.76,3.92,9.73,8.67A7.7,7.7,0,0,1,55.21,129.54Z"/><path class="cls-14" d="M207.13,179.1a1.82,1.82,0,0,0,1.5,3.32,22.49,22.49,0,0,0,7.7-6.2h0a43.14,43.14,0,0,0,6.17-10.13,1.82,1.82,0,0,0-3.33-1.49,39.31,39.31,0,0,1-5.63,9.26h0A18.75,18.75,0,0,1,207.13,179.1Z"/><path class="cls-12" d="M207.78,198.7a1.82,1.82,0,1,0,3.14-1.84c-1.49-2.54-2.06-7.33-1.88-12.93a77.37,77.37,0,0,1,3.13-19.09,1.82,1.82,0,1,0-3.49-1.05,81.06,81.06,0,0,0-3.28,20C205.2,190.05,205.93,195.54,207.78,198.7Z"/><path class="cls-4" d="M214.28,170.33h0l.24,0h0l.22.05h0l.23,0h0l.24,0h0l.25,0h0l.27,0h0l.27,0h0l.27,0h.29c6,.24,10.93-3.25,11.11-7.79v-.23a1.08,1.08,0,0,0,0-.18v0a1.09,1.09,0,0,0,0-.18v0c0-.06,0-.12,0-.18v0a1.1,1.1,0,0,1,0-.18h0a1.1,1.1,0,0,0,0-.18v0l0-.18v0a1.16,1.16,0,0,1,0-.18v0a1.16,1.16,0,0,0,0-.18v0a.84.84,0,0,0,0-.17h0l-.06-.17v0l-.06-.17v0l0-.15,0,0a1.11,1.11,0,0,0-.07-.16v0a1,1,0,0,1-.07-.15v0h0l-.07-.15,0-.05-.09-.16v0l-.08-.15,0,0-.09-.15,0-.05-.09-.14h0l-.11-.15,0,0-.11-.15,0,0-.1-.14,0,0a.76.76,0,0,0-.11-.14l0-.05-.11-.12,0,0h0l-.11-.13,0,0-.13-.14v0l-.13-.13,0,0-.14-.13,0,0-.13-.12,0,0-.13-.12-.05,0-.15-.12,0,0-.13-.11-.05,0-.15-.11,0,0-.14-.1h0l-.16-.11-.06,0-.15-.1-.05,0-.14-.09,0,0-.17-.1-.05,0-.16-.09h0l.06-.11v0l.07-.16v0l.07-.16v0l.06-.17v0l.06-.19h0l.06-.19h0l0-.2h0c0-.07,0-.13.05-.19h0a1.77,1.77,0,0,1,0-.2h0l0-.2h0a1.49,1.49,0,0,0,0-.21h0a1.36,1.36,0,0,0,0-.2h0a1.48,1.48,0,0,0,0-.21c.18-4.53-4.51-8.4-10.47-8.63h-1.39l-.23,0h-.07l-.18,0h-.07l-.23,0h0l-.2,0H211l-.18,0h-.06l-.22,0h-.08l-.16,0-.08,0-.2,0h0l-.21.05h-.07l-.17,0-.06,0-.21,0-.08,0-.13,0-.09,0-.14.05-.08,0-.19.06-.08,0-.13.05-.08,0-.17.06-.1,0-.12.05-.1,0-.1,0-.09,0-.18.09-.08,0-.1,0-.1.05-.1,0-.15.08-.09,0-.11.06-.06,0-.11.06h0l-.15.08-.1.06-.07,0-.11.07,0,0-.23.15,0,0-.1.07-.06,0-.1.08,0,0-.18.14-.06,0-.09.07,0,0-.09.08-.13.1h0l-.08.07-.06.05-.09.09,0,0c-.11.1-.21.21-.31.32h0c-.1.11-.2.21-.29.32l0,0-.08.11,0,0c-.09.11-.18.22-.26.34l0,0-.08.11h-.1c-6-.24-10.93,3.25-11.11,7.79a1.28,1.28,0,0,1,0,.19V157s0,.09,0,.13v.06a1.28,1.28,0,0,0,0,.19h0c0,.06,0,.12,0,.18v0c0,.05,0,.1,0,.15v.05a1.1,1.1,0,0,0,0,.18v.05l0,.14v.05l0,.15v0a1.16,1.16,0,0,0,0,.18v0c0,.05,0,.1,0,.14l0,.06a1.42,1.42,0,0,0,.05.16h0l.06.17,0,.06a1.17,1.17,0,0,0,0,.11l0,.06c0,.06,0,.12.07.17h0l.07.15,0,.06,0,.11,0,.07.09.15,0,.05.07.12,0,.06.07.11,0,.06.1.15,0,.05.08.11,0,.06.08.12,0,0,.12.16,0,.05.09.1,0,0,.09.11.07.08.09.1.06.07.07.07.07.07.09.09.08.09.09.09.07.06.09.08.06.06.14.12.06.05.09.08.07.06.1.08.06,0,.15.12.08.06.08.06.08.06.09.06.08.06.15.09h0l.1.06.09,0,.08.06.12.07.12.07.1.06.11.06.08,0,.1.06.09,0,.2.1.06,0,.12,0,.09.05.09,0,.15.07.13.05.1,0,.11,0,.09,0,.12,0c1,3.68,5.14,6.56,10.26,6.76A13.34,13.34,0,0,0,214.28,170.33Z"/><path class="cls-15" d="M217.53,145.42a13.59,13.59,0,0,0-4-.75h-1.39l-.23,0h-.07l-.18,0h-.07l-.23,0h0l-.2,0H211l-.18,0h-.06l-.22,0h-.08l-.16,0-.08,0-.2,0h0l-.21.05h-.07l-.17,0-.06,0-.21,0-.08,0-.13,0-.09,0-.14.05-.08,0-.19.06-.08,0-.13.05-.08,0-.17.06-.1,0-.12.05-.1,0-.1,0-.09,0-.18.09-.08,0-.1,0-.1.05-.1,0-.15.08-.09,0-.11.06-.06,0-.11.06h0l-.15.08-.1.06-.07,0-.11.07,0,0-.23.15,0,0-.1.07-.06,0-.1.08,0,0-.18.14-.06,0-.09.07,0,0-.09.08-.13.1h0l-.08.07-.06.05-.09.09,0,0c-.11.1-.21.21-.31.32h0c-.1.11-.2.21-.29.32l0,0-.08.11,0,0c-.09.11-.18.22-.26.34l0,0-.08.11h-.1c-6-.24-10.93,3.25-11.11,7.79a1.28,1.28,0,0,1,0,.19V157s0,.09,0,.13v.06a1.28,1.28,0,0,0,0,.19h0c0,.06,0,.12,0,.18v0c0,.05,0,.1,0,.15v.05a1.1,1.1,0,0,0,0,.18v.05l0,.14v.05l0,.15v0a1.16,1.16,0,0,0,0,.18v0c0,.05,0,.1,0,.14l0,.06a1.42,1.42,0,0,0,.05.16h0l.06.17,0,.06a1.17,1.17,0,0,0,0,.11l0,.06c0,.06,0,.12.07.17h0l.07.15,0,.06,0,.11,0,.07.09.15,0,.05.07.12,0,.06.07.11,0,.06.1.15,0,.05.08.11,0,.06.08.12,0,0,.12.16,0,.05.09.1,0,0,.09.11.07.08.09.1.06.07.07.07.07.07.09.09.08.09.09.09.07.06.09.08.06.06.14.12.06.05.09.08.07.06.1.08.06,0,.15.12.08.06.08.06.08.06.09.06.08.06.15.09h0l.1.06.09,0,.08.06.12.07.12.07.1.06.11.06.08,0,.1.06.09,0,.2.1.06,0,.12,0,.09.05.09,0,.15.07.13.05.1,0,.11,0,.09,0,.12,0a7,7,0,0,0,1.3,2.59,13.59,13.59,0,0,0,4,.75,13.34,13.34,0,0,0,5.56-.94h0l.24.05h0l.22.05h0l.23,0h0l.25,0h0l.25,0h0l.27,0h0l.27,0h0l.26,0h.29c6,.24,10.93-3.25,11.11-7.79a1.09,1.09,0,0,1,0-.18v-.05c0-.06,0-.12,0-.18v0a1.09,1.09,0,0,0,0-.18v0c0-.06,0-.12,0-.18v0a1.1,1.1,0,0,1,0-.18h0a1.1,1.1,0,0,0,0-.18v0l0-.18v0c0-.06,0-.12,0-.18v0c0-.06,0-.12-.05-.18v0a.84.84,0,0,0-.05-.17h0a1.09,1.09,0,0,1,0-.17l0,0-.06-.17v0a.88.88,0,0,0-.05-.15l0,0a1.11,1.11,0,0,0-.07-.16v0a1,1,0,0,1-.07-.15v0h0l-.07-.15,0,0-.09-.16v0l-.08-.15,0,0-.09-.15,0,0-.09-.14h0l-.11-.16,0,0-.11-.15,0,0a.64.64,0,0,0-.1-.13l0,0a.76.76,0,0,0-.11-.14l0,0-.11-.12v0h0a.69.69,0,0,0-.11-.13l0,0-.13-.14v0a1.59,1.59,0,0,1-.13-.13l0,0-.14-.13,0,0-.13-.12,0,0-.13-.12,0,0-.14-.12,0,0-.13-.11-.05,0-.15-.11-.05,0-.14-.1h0l-.16-.11-.06,0-.15-.1-.05,0-.14-.09,0,0-.17-.1,0,0-.16-.09h0l.06-.11v0l.07-.16v0l.07-.16v0l.06-.17v0l.06-.18v0l.06-.19h0c0-.07,0-.13.05-.2h0c0-.07,0-.13,0-.19h0a1.77,1.77,0,0,1,0-.2h0l0-.2h0a1.49,1.49,0,0,0,0-.21h0a1.36,1.36,0,0,0,0-.2h0a1.48,1.48,0,0,0,0-.21A6.79,6.79,0,0,0,217.53,145.42Z"/><path class="cls-4" d="M188.9,180.09a9.1,9.1,0,0,0,2.83,1.31c3.5,1,6.86-.14,7.5-2.47.51-1.84-.82-3.88-3.1-5.14a4.15,4.15,0,0,0,3.46-2.68c.65-2.33-1.67-5-5.16-6L194,165a3.16,3.16,0,0,0,.27-.66c.64-2.34-1.67-5-5.17-6a9.28,9.28,0,0,0-2.1-.34c.25-2.21-2-4.6-5.25-5.51-3.5-1-6.86.15-7.5,2.48,0,.06,0,.13,0,.19-.32-.12-.65-.24-1-.33-3.5-1-6.85.14-7.5,2.47a3.4,3.4,0,0,0,.39,2.58,3.59,3.59,0,0,0-2.06,2.2,9.24,9.24,0,0,0-1.31-.47c-3.5-1-6.86.15-7.5,2.48s1.67,5,5.17,6l.49.12c.13,2.06,2.26,4.16,5.27,5,.35.09.7.17,1,.23-.33,2.24,1.92,4.69,5.24,5.61,2.7.74,5.32.25,6.67-1.08a9.34,9.34,0,0,0,2.93,1.38C184.88,182.15,187.62,181.58,188.9,180.09Z"/><path class="cls-5" d="M180.2,173.91a9.1,9.1,0,0,0,2.83,1.31c3.5,1,6.86-.14,7.5-2.47.51-1.84-.82-3.88-3.1-5.14a4.15,4.15,0,0,0,3.46-2.68c.65-2.33-1.67-5-5.16-6l-.42-.11a3.16,3.16,0,0,0,.27-.66c.62-2.23-1.47-4.77-4.71-5.84-3.16-.56-6,.55-6.61,2.68,0,.06,0,.13,0,.19-.32-.12-.65-.24-1-.33-3.5-1-6.85.14-7.5,2.47a3.4,3.4,0,0,0,.39,2.58,3.59,3.59,0,0,0-2.06,2.2,9.24,9.24,0,0,0-1.31-.47c-3.5-1-6.86.15-7.5,2.48-.5,1.8.78,3.81,3,5.08l.27,0s0,.07,0,.1a9.86,9.86,0,0,0,1.91.75l.49.12c.13,2.06,2.26,4.16,5.27,5h0a5.88,5.88,0,0,0,4.23-1.43,9.14,9.14,0,0,0,2.93,1.39C176.18,176,178.92,175.39,180.2,173.91Z"/><path class="cls-4" d="M129.83,166.19a5.5,5.5,0,0,0,1.76.28c2.08,0,3.75-1.15,3.74-2.53,0-1.09-1.05-2-2.5-2.35a2.37,2.37,0,0,0,1.49-2c0-1.38-1.7-2.49-3.78-2.48h-.25a1.44,1.44,0,0,0,.05-.41c0-1.39-1.7-2.5-3.77-2.48a5.21,5.21,0,0,0-1.21.14c-.21-1.25-1.81-2.22-3.75-2.21s-3.75,1.15-3.74,2.53a.37.37,0,0,0,0,.11l-.6,0c-2.08,0-3.75,1.14-3.74,2.53a2,2,0,0,0,.61,1.36,2.07,2.07,0,0,0-.79,1.52,6.7,6.7,0,0,0-.79-.05c-2.07,0-3.75,1.15-3.74,2.53s1.7,2.5,3.77,2.48h.3c.38,1.11,1.88,1.94,3.67,1.92a6.08,6.08,0,0,0,.61,0c.17,1.28,1.79,2.28,3.76,2.27a4,4,0,0,0,3.49-1.64,5.38,5.38,0,0,0,1.84.31A3.91,3.91,0,0,0,129.83,166.19Z"/><path class="cls-5" d="M124.08,164.14a5,5,0,0,0,1.76.28c2.08,0,3.75-1.15,3.74-2.53,0-1.09-1.05-2-2.5-2.34a2.39,2.39,0,0,0,1.49-2c0-1.39-1.7-2.5-3.78-2.48h-.25a1.4,1.4,0,0,0,0-.41c0-1.32-1.55-2.39-3.5-2.47-1.83.18-3.23,1.24-3.22,2.5a.37.37,0,0,0,0,.11l-.6,0c-2.08,0-3.75,1.14-3.74,2.53a2,2,0,0,0,.61,1.36,2.07,2.07,0,0,0-.79,1.52,6.7,6.7,0,0,0-.79-.05c-2.07,0-3.75,1.15-3.74,2.53,0,1.07,1,2,2.44,2.33l.16,0a.13.13,0,0,0,0,.06,6.17,6.17,0,0,0,1.16.11h.3c.38,1.11,1.88,1.94,3.67,1.92h0a3.4,3.4,0,0,0,2.11-1.44,5.06,5.06,0,0,0,1.83.3A3.89,3.89,0,0,0,124.08,164.14Z"/><path class="cls-4" d="M51.49,174.34a4.15,4.15,0,0,0,1.47-.28c1.63-.6,2.63-2,2.23-3.06a2.37,2.37,0,0,0-2.65-1.14,2,2,0,0,0,.6-2c-.4-1.09-2-1.49-3.69-.88l-.19.07a1.32,1.32,0,0,0-.08-.33c-.4-1.09-2-1.49-3.69-.88a4.29,4.29,0,0,0-.91.45c-.53-.93-2.07-1.23-3.59-.67s-2.64,2-2.23,3.07l0,.08-.48.15c-1.63.61-2.63,2-2.23,3.07a1.68,1.68,0,0,0,.88.9,1.71,1.71,0,0,0-.19,1.43,3.83,3.83,0,0,0-.64.18c-1.64.61-2.63,2-2.23,3.07s2.05,1.48,3.69.88l.22-.09a3.14,3.14,0,0,0,3.45.47,3.35,3.35,0,0,0,.47-.21c.5,1,2.07,1.29,3.62.72A3.36,3.36,0,0,0,47.64,177a4.57,4.57,0,0,0,1.54-.28A3.3,3.3,0,0,0,51.49,174.34Z"/><path class="cls-5" d="M46.37,174.37a4.38,4.38,0,0,0,1.46-.28c1.64-.6,2.64-2,2.23-3.07a2.35,2.35,0,0,0-2.64-1.13,2,2,0,0,0,.6-2c-.41-1.08-2.06-1.48-3.69-.87l-.2.07a1.37,1.37,0,0,0-.07-.34c-.39-1-1.91-1.44-3.48-.95-1.39.67-2.19,1.9-1.82,2.9l0,.08-.48.15c-1.63.61-2.63,2-2.23,3.07a1.68,1.68,0,0,0,.88.9,1.71,1.71,0,0,0-.19,1.43,3.83,3.83,0,0,0-.64.18c-1.64.61-2.63,2-2.23,3.07a2.34,2.34,0,0,0,2.59,1.14l.12-.06,0,0a4.5,4.5,0,0,0,1-.24l.22-.09a3.14,3.14,0,0,0,3.45.47h0a2.82,2.82,0,0,0,1.25-1.74,4.47,4.47,0,0,0,1.53-.28A3.31,3.31,0,0,0,46.37,174.37Z"/><circle class="cls-16" cx="196.21" cy="46.26" r="25.64"/><circle class="cls-3" cx="33.62" cy="2.96" r="2.96"/><circle class="cls-16" cx="135.33" cy="29.65" r="2.96"/><circle class="cls-3" cx="192.86" cy="73.75" r="4.57"/><circle class="cls-17" cx="210.11" cy="26.69" r="13.34"/><circle class="cls-18" cx="54.58" cy="62.56" r="3.14"/><path class="cls-17" d="M77.08,23.25H62.69a2.78,2.78,0,0,1,0-5.56h.48a2.78,2.78,0,1,0,0-5.56H10.75a2.78,2.78,0,0,0,0,5.56H24.22a2.78,2.78,0,1,1,0,5.56H19.1a2.78,2.78,0,0,0,0,5.56h58a2.78,2.78,0,1,0,0-5.56Z"/><path class="cls-16" d="M141.07,49.57H124.74a3.16,3.16,0,1,1,0-6.31h.55a3.16,3.16,0,0,0,0-6.31H65.81a3.16,3.16,0,1,0,0,6.31H81.09a3.16,3.16,0,1,1,0,6.31H75.28a3.15,3.15,0,0,0,0,6.3h65.79a3.15,3.15,0,1,0,0-6.3Z"/><g class="cls-19"><circle class="cls-20" cx="119.03" cy="380.72" r="218.97"/></g><g class="cls-19"><circle class="cls-8" cx="119.03" cy="397.03" r="198.23"/></g><rect class="cls-10" x="131.19" y="213.55" width="45.32" height="2.61"/><rect class="cls-10" x="131.19" y="208.88" width="45.32" height="2.61"/><rect class="cls-10" x="138.4" y="208.88" width="1.55" height="11.72"/><rect class="cls-10" x="168.53" y="208.88" width="1.55" height="11.72"/><ellipse class="cls-21" cx="62.9" cy="217.94" rx="17.62" ry="2.14"/><ellipse class="cls-21" cx="89.62" cy="215.81" rx="5.96" ry="0.72"/><circle class="cls-22" cx="89.82" cy="214.38" r="1.8"/><ellipse class="cls-8" cx="87.67" cy="170.81" rx="7.91" ry="1.52"/><path class="cls-23" d="M87.53,155.34a2,2,0,1,0-2-2,2,2,0,0,0,2,2Zm0,0"/><path class="cls-23" d="M95.42,152.87l-.29-.42a.65.65,0,0,0-.55-.3.71.71,0,0,0-.4.13l-5.09,3.64H86l-5.09-3.64a.71.71,0,0,0-.4-.13.66.66,0,0,0-.55.3l-.29.42a.7.7,0,0,0,.16.95l5.13,3.67v12.72a1.14,1.14,0,0,0,1.14,1.13h.08a1.14,1.14,0,0,0,1.14-1.13v-6h.48v6a1.14,1.14,0,0,0,1.14,1.13H89a1.14,1.14,0,0,0,1.14-1.13V157.49l5.13-3.67a.69.69,0,0,0,.16-.95Zm0,0"/><ellipse class="cls-21" cx="130.93" cy="178.53" rx="8.93" ry="1.02"/><path class="cls-24" d="M137.5,172.26a.36.36,0,0,0,0-.25,1.43,1.43,0,0,0-.29-.42,2,2,0,0,1-.23-.27,2.25,2.25,0,0,1-.09-.61,1.36,1.36,0,0,0-.75-1.09l-.4-.15s-.32-.94-.55-1-.24,1.07-.39,1.23a15,15,0,0,1-2.15,2.07l-5.08-.11a3.28,3.28,0,0,1-.56-.06,1.05,1.05,0,0,1-.21-.06,2.9,2.9,0,0,1-.61-.31l-.45-.33a3.85,3.85,0,0,1-.28-.27l-.1-.12a.73.73,0,0,0-.38-.27.52.52,0,0,0-.41,0,.35.35,0,0,0-.22.28.54.54,0,0,0,.11.39l.21.24a4.72,4.72,0,0,0,.54.48,5,5,0,0,0,.85.53,4.25,4.25,0,0,0,1,.35c.06,0,.17,0,.19.26s.12,1.76.14,1.93-.51,3.19-.51,3.19a.38.38,0,0,0,.13.36.68.68,0,0,0,.41.18.32.32,0,0,0,.14,0,.67.67,0,0,0,.35-.14.48.48,0,0,0,.19-.29l.46-2.58a.19.19,0,0,1,.18-.14.16.16,0,0,1,.19.13l.89,2.45a.47.47,0,0,0,.21.23.55.55,0,0,0,.34.07l.06,0h.06a.61.61,0,0,0,.32-.24.35.35,0,0,0,.06-.34l-.61-1.92c-.07-.21,0-.31.25-.29,0,0,1.32.12,1.59.17s.24.16.23.22l-.45,1.73a.33.33,0,0,0,.06.33.5.5,0,0,0,.31.17h.12a.56.56,0,0,0,.3-.12.58.58,0,0,0,.19-.27s.43-1.53.5-1.81.53-.36.56,0,.37,1.72.37,1.72a.44.44,0,0,0,.16.22.42.42,0,0,0,.27.06h.05l.06,0a.53.53,0,0,0,.29-.22.38.38,0,0,0,.08-.32c-.09-.46-.17-.85-.23-1.15s-.1-.55-.13-.73a3.9,3.9,0,0,1-.09-.46.88.88,0,0,1,0-.46l.1-.26a1.34,1.34,0,0,0,.12-.24l.47-1.1c.08-.24.17-.25.21-.24l.31.08.46.08.54.07c.11,0,.35-.21.43-.31a.75.75,0,0,0,.17-.26Zm0,0"/><ellipse class="cls-21" cx="141.78" cy="186.77" rx="8.93" ry="1.02"/><ellipse class="cls-21" cx="172.56" cy="178.05" rx="6.28" ry="0.68"/><circle class="cls-25" cx="140.58" cy="185.75" r="1.2"/><circle class="cls-3" cx="71.06" cy="159.62" r="1.2"/><circle class="cls-26" cx="172.56" cy="176.91" r="1.2"/><ellipse class="cls-21" cx="161.49" cy="192.99" rx="1.7" ry="9.1" transform="translate(-48.22 332.06) rotate(-83.63)"/><path class="cls-23" d="M161.13,177.63a1.92,1.92,0,1,0-1.91-1.92A1.92,1.92,0,0,0,161.13,177.63Z"/><path class="cls-23" d="M163.65,181.31V179a.76.76,0,0,0-.76-.76h-3.28l-5-3.55a.69.69,0,0,0-.39-.12.65.65,0,0,0-.54.28l-.28.41a.67.67,0,0,0,.16.93l4.23,3-2.21-.72a.67.67,0,0,0-.85.42l-.16.47a.67.67,0,0,0,.09.6.71.71,0,0,0,.33.24l3.57,1.17v10.77a1.11,1.11,0,0,0,1.11,1.11h.08a1.11,1.11,0,0,0,1.11-1.11v-5.8h.47v5.8a1.11,1.11,0,0,0,1.11,1.11h.08a1.11,1.11,0,0,0,1.11-1.11v-10.8Z"/><rect class="cls-3" x="125.62" y="110.73" width="31.97" height="6.95"/><rect class="cls-27" x="139.38" y="171.34" width="5.71" height="1.57" rx="0.78"/><ellipse class="cls-20" cx="62.13" cy="215.99" rx="7.91" ry="1.52"/><circle class="cls-26" cx="55.42" cy="185.18" r="1.2"/><path class="cls-23" d="M64.11,192.51a2,2,0,1,1-2-2,2,2,0,0,1,2,2Zm0,0"/><path class="cls-23" d="M69,190.89a3.82,3.82,0,0,1-1.37-1.61l-4.5,5.49h-2l-4.59-5.6a3.36,3.36,0,0,0,.19-1.11,2.54,2.54,0,1,0-2.51,2.88,2.24,2.24,0,0,0,.92-.2l4.59,5.61-1.07,7.85a.57.57,0,0,0,.57.65h.1v9.89a1.25,1.25,0,0,0,2.5,0v-9.89h.54v9.89a1.25,1.25,0,0,0,2.5,0v-9.89H65a.57.57,0,0,0,.56-.65l-1.07-7.84Z"/><circle class="cls-23" cx="69.11" cy="189.35" r="1.19"/><path class="cls-28" d="M11.67,107.7h2.49a2.92,2.92,0,0,1,5.19,0H29.77a2.92,2.92,0,0,1,5.19,0h3c.79-4.38-2.48-4.8-2.48-4.8l-4.21-.48-1.82-3a4.28,4.28,0,0,0-2.68-2.18s-5.46-.25-8.19,0S15,100.56,15,100.56s-.89,2.28-2,2.27a1.23,1.23,0,0,0-1.39,1.22l0,3.66Z"/><path class="cls-29" d="M19.86,97.2c-.46,0-.9,0-1.28.08-2.72.25-3.61,3.26-3.61,3.26s-.89,2.29-2,2.27A1.23,1.23,0,0,0,11.55,104l0,3.67.14,0h2.49a2.92,2.92,0,0,1,5.19,0H27.8Z"/><circle class="cls-30" cx="16.74" cy="109.04" r="2.55"/><circle class="cls-9" cx="16.74" cy="109.04" r="1.43"/><circle class="cls-31" cx="16.74" cy="109.04" r="1.24"/><circle class="cls-30" cx="32.38" cy="109.04" r="2.55"/><circle class="cls-9" cx="32.38" cy="109.04" r="1.43"/><circle class="cls-31" cx="32.38" cy="109.04" r="1.24"/><path class="cls-10" d="M14.24,107.59H11.67a.72.72,0,0,0-.72.72h0a.72.72,0,0,0,.72.72h2.17A2.9,2.9,0,0,1,14.24,107.59Z"/><path class="cls-10" d="M29.46,109a2.8,2.8,0,0,1,.39-1.44H19.3a2.8,2.8,0,0,1,.39,1.44Z"/><path class="cls-10" d="M38,107.59h-3A2.8,2.8,0,0,1,35.3,109H38a.72.72,0,0,0,.72-.72h0A.72.72,0,0,0,38,107.59Z"/><rect class="cls-32" x="18.63" y="98.56" width="4.12" height="3.7"/><path class="cls-32" d="M15.74,102.26h2V98.78S16.21,98.92,15.74,102.26Z"/><path class="cls-32" d="M23.65,98.55v3.71h5.68s-1.06-3.71-3.82-3.71Z"/><polygon class="cls-33" points="18.63 98.55 22.34 102.26 18.63 102.26 18.63 98.55"/><path class="cls-33" d="M23.65,98.55v3.71h2.77S25.57,98.55,23.65,98.55Z"/><rect class="cls-9" x="18.63" y="103.29" width="1.77" height="0.72" rx="0.27"/><rect class="cls-9" x="23.74" y="103.29" width="1.77" height="0.72" rx="0.27"/><circle class="cls-34" cx="16.75" cy="109.04" r="0.89"/><circle class="cls-34" cx="32.38" cy="109.04" r="0.89"/><path class="cls-9" d="M37.68,104.54H35.51s0,.8,1.08.8a1.67,1.67,0,0,1,1.49,1.15S38.12,104.91,37.68,104.54Z"/><rect class="cls-35" x="35.09" y="104.01" width="1.85" height="0.72" rx="0.27"/><rect class="cls-35" x="11.67" y="106.15" width="1.85" height="0.72" rx="0.27"/><rect class="cls-36" x="32.3" y="106.61" width="0.99" height="2.66" rx="0.49" transform="matrix(0.99, 0.15, -0.15, 0.99, 16.71, -3.72)"/><rect class="cls-37" x="38.32" y="100.85" width="6.93" height="0.32"/><path class="cls-38" d="M40.19,101.74h5.6c2.4,0,4.79,2.93,7,4.35A7.58,7.58,0,0,0,56,107.3,3.35,3.35,0,0,1,58.17,109a8,8,0,0,1,.46,2.71,1,1,0,0,1-1,1.1H33.77c-.5,0-.75-.62-.8-1.12a13.22,13.22,0,0,1,0-3.08C33.54,106,35.64,101.74,40.19,101.74Z"/><path class="cls-39" d="M58.63,111.68c0-.09,0-.2,0-.32L32.92,111c0,.24,0,.48,0,.66.05.5.3,1.12.8,1.12H57.6A1,1,0,0,0,58.63,111.68Z"/><path class="cls-39" d="M35.37,112.79a2.54,2.54,0,0,1,2.8-2.8,2.55,2.55,0,0,1,2.81,2.8Z"/><path class="cls-39" d="M49.82,112.79A2.56,2.56,0,0,1,52.63,110a2.56,2.56,0,0,1,2.81,2.81Z"/><rect class="cls-31" x="33.29" y="111.27" width="1.15" height="0.58" rx="0.21"/><rect class="cls-34" x="38.36" y="106.98" width="1.15" height="0.58" rx="0.21"/><rect class="cls-34" x="44.27" y="106.98" width="1.15" height="0.58" rx="0.21"/><circle class="cls-30" cx="38.16" cy="112.79" r="2.2"/><circle class="cls-9" cx="38.16" cy="112.79" r="1.23"/><circle class="cls-31" cx="38.16" cy="112.79" r="1.07"/><circle class="cls-34" cx="38.18" cy="112.79" r="0.76"/><circle class="cls-30" cx="52.86" cy="112.79" r="2.2"/><circle class="cls-9" cx="52.86" cy="112.79" r="1.23"/><circle class="cls-31" cx="52.86" cy="112.79" r="1.07"/><circle class="cls-34" cx="52.87" cy="112.79" r="0.76"/><path class="cls-31" d="M58.46,109.33H56.59s0,.69.94.69a1.44,1.44,0,0,1,1.28,1S58.84,109.65,58.46,109.33Z"/><rect class="cls-35" x="56.23" y="108.88" width="1.59" height="0.62" rx="0.31"/><rect class="cls-34" x="39.23" y="101.14" width="0.4" height="1"/><rect class="cls-34" x="40.58" y="101.14" width="0.4" height="1"/><rect class="cls-34" x="41.94" y="101.14" width="0.4" height="1"/><rect class="cls-34" x="43.29" y="101.14" width="0.4" height="1"/><rect class="cls-34" x="38.32" y="101.01" width="6.93" height="0.32"/><rect class="cls-32" x="38.45" y="102.67" width="4.78" height="3.85"/><path class="cls-32" d="M35.1,106.52h2.31V102.9S35.64,103.05,35.1,106.52Z"/><path class="cls-32" d="M44.27,102.66v3.86h6.58s-1.23-3.86-4.42-3.86Z"/><polygon class="cls-33" points="38.45 102.67 42.74 106.52 38.45 106.52 38.45 102.67"/><path class="cls-33" d="M44.27,102.66v3.86h3.21S46.49,102.66,44.27,102.66Z"/><path class="cls-39" d="M52,107.28c0,.25-.2.41-.35.36l-.93-.29c-.15,0-.23-.29-.19-.54l.05-.32c0-.25.19-.41.34-.36l.93.29c.15,0,.24.29.2.54Z"/><path class="cls-35" d="M33.81,110.17h-.67v.62h.67a.31.31,0,0,0,0-.62Z"/><rect class="cls-30" x="32.43" y="106.03" width="0.99" height="3.86" rx="0.49" transform="translate(16.72 -3.74) rotate(8.7)"/><line class="cls-40" x1="88.5" y1="121.26" x2="88.5" y2="99.22"/><path class="cls-41" d="M99.93,100.43a.09.09,0,0,0,0-.13L96.3,97l-16.2-.17a1,1,0,0,0-1,1l0,4.72a1,1,0,0,0,1,1l16.2.17Zm-3.7,3.27"/><rect class="cls-42" x="176.63" y="95.96" width="1.11" height="6.77"/><rect class="cls-42" x="180.58" y="95.96" width="1.11" height="6.77"/><rect class="cls-42" x="184.54" y="95.96" width="1.11" height="6.77"/><rect class="cls-42" x="188.5" y="95.96" width="1.11" height="6.77"/><rect class="cls-42" x="192.46" y="95.96" width="1.11" height="6.77"/><rect class="cls-42" x="196.42" y="95.96" width="1.11" height="6.77"/><rect class="cls-42" x="200.37" y="95.96" width="1.11" height="6.77"/><rect class="cls-42" x="204.33" y="95.96" width="1.11" height="6.77"/><rect class="cls-42" x="208.29" y="95.96" width="1.11" height="6.77"/><rect class="cls-42" x="212.25" y="95.96" width="1.11" height="6.77"/><rect class="cls-42" x="216.21" y="95.96" width="1.11" height="6.77"/><rect class="cls-42" x="220.16" y="95.96" width="1.11" height="6.77"/><rect class="cls-42" x="224.12" y="95.96" width="1.11" height="6.77"/><rect class="cls-42" x="173.86" y="94.69" width="54.73" height="1.58"/><rect class="cls-10" x="173.07" y="101.75" width="56.32" height="3.04"/></g></svg>