<svg xmlns="http://www.w3.org/2000/svg" xmlns:xlink="http://www.w3.org/1999/xlink" viewBox="0 0 188.98 175"><defs><style>.cls-1{fill:none;}.cls-2,.cls-3{fill:#00aeef;}.cls-2{opacity:0.03;}.cls-3{opacity:0.2;}.cls-4{opacity:0.08;}.cls-5{fill:#46cccc;}.cls-6{fill:#dae4e5;}.cls-7{fill:#7bcaff;opacity:0.3;}.cls-8{fill:#a6bcb0;}.cls-9{opacity:0.7;}.cls-10{fill:#00233f;}.cls-11{fill:#5c896a;}.cls-12{fill:#2b3b4e;}.cls-13,.cls-20{fill:#454857;}.cls-14{fill:#507c5d;}.cls-15{fill:#71ae87;}.cls-16{fill:#50825f;}.cls-16,.cls-22{opacity:0.5;}.cls-17{fill:#020202;opacity:0.15;}.cls-18{fill:#fff;}.cls-19,.cls-50{fill:#88abac;}.cls-19,.cls-20{fill-rule:evenodd;}.cls-21{clip-path:url(#clip-path);}.cls-22{fill:#598e6a;}.cls-23{fill:#659876;}.cls-24{fill:#81929b;}.cls-25{fill:#f9b7b8;}.cls-26{fill:#754c29;}.cls-27{fill:#ffce47;}.cls-28{fill:#cfb427;}.cls-29{fill:#db9ea1;}.cls-30{fill:#be1e2d;}.cls-31{fill:#f2b233;}.cls-32{fill:#726658;}.cls-33{fill:#3a7bd8;}.cls-34{fill:#c2b59b;}.cls-35{fill:#333;}.cls-36{fill:#594a42;}.cls-37{fill:#9b8579;}.cls-38{fill:#ffaa05;}.cls-39{fill:#ffaf84;}.cls-40{fill:#168d68;}.cls-41{fill:#9fdbf0;}.cls-42{fill:#996233;}.cls-43{fill:#ffd013;}.cls-44{opacity:0.6;}.cls-45{fill:#d0d1d3;}.cls-46{fill:#d88416;}.cls-47{fill:#f9db7a;}.cls-48{clip-path:url(#clip-path-2);}.cls-49{fill:#f1f2f2;}.cls-51{fill:#8cb0da;}.cls-52{fill:#f98d2b;}</style><clipPath id="clip-path"><path class="cls-1" d="M148.6,108.61c-5.84-2.45-11.67-5-17.49-7.45-2.73-1.17-3.36-2.48-2.58-5.32.38-1.42.77-2.84,1.19-4.34.29-1.08.6-2.2.93-3.4a132.57,132.57,0,0,0-19.24-1.6,132.94,132.94,0,0,0-19.22,1.85c.26.89.51,1.75.76,2.58l1.48,5.12c.81,2.83.19,4.15-2.52,5.36q-8.68,3.86-17.39,7.67c-1.9.83-2.52.33-4-1.12a10.34,10.34,0,0,1-3.11-8.77A26.28,26.28,0,0,1,67.83,96c.89-4.61,1.57-9.51,4.57-13.15a12,12,0,0,1,3.54-2.35,92.36,92.36,0,0,1,27.62-7.64c2.59-.31,5.12-.5,7.76-.57s5.17.19,7.77.47A92.79,92.79,0,0,1,146.81,80a12.18,12.18,0,0,1,3.57,2.31c3.05,3.6,3.79,8.49,4.74,13.09a18.8,18.8,0,0,1,.42,6.28,9.76,9.76,0,0,1-2.94,5.73C151.12,108.91,150.51,109.42,148.6,108.61Z"/></clipPath><clipPath id="clip-path-2"><path class="cls-1" d="M131.39,31.35v2.28a2.32,2.32,0,0,0,2.35,2.29h0a2.32,2.32,0,0,0,2.35-2.29V31.35Z"/></clipPath></defs><g id="Styles"><circle class="cls-2" cx="94.3" cy="87.5" r="87.5"/><circle class="cls-3" cx="182.35" cy="158.1" r="5.93"/><g class="cls-4"><path class="cls-5" d="M187.59,102.33c-3-8.29-7.66-10.81-12.11-16.13-5.44-6.49-9.11-11.21-7.7-19.57,2.31-13.65,3.3-47.7-32.84-43.25C122,25,111.75,34.91,104.3,44.81,98,53.25,86.57,54,77.39,56a135.36,135.36,0,0,0-33.18,11.4c-21.48,11-27.9,26.84-27,47.09.26,6.12,1.13,15.75,11.46,27,14,15.22,34.22,17.26,58.62,10.27,5.58-1.6,10.86-4.11,16.35-6a77.37,77.37,0,0,1,17.65-3.83c14-1.36,28.54,1.09,42-3.09A44.19,44.19,0,0,0,182,127.18,24,24,0,0,0,187.59,102.33Z"/></g><ellipse class="cls-6" cx="95.32" cy="140.33" rx="46.49" ry="5.98"/><ellipse class="cls-6" cx="131.92" cy="141.78" rx="34.11" ry="7.44"/><path class="cls-7" d="M181.33,73.4H140.16c-6.21,0-6.29-7.07-.78-8.49a11.49,11.49,0,0,1,9.7,1.89s1.49-17.36,15.67-15.32c11.17,1.61,10.52,12.76,10.52,12.76s2.3-4.59,8.33-2.85C189.89,63.2,189.21,73.4,181.33,73.4Z"/><path class="cls-7" d="M46,105.36H4.79c-6.21,0-6.29-7.06-.78-8.48a11.51,11.51,0,0,1,9.7,1.88S15.2,81.4,29.38,83.44C40.55,85.05,39.9,96.2,39.9,96.2s2.3-4.59,8.33-2.85C54.52,95.16,53.84,105.36,46,105.36Z"/><path class="cls-8" d="M74.23,89.37s-.11-2.39-3.74-4.53S59.13,83.36,58,81c-1.16-2.53,3.69-2.22,5.67-4.26s2.64-3-.29-3.43-4.67-.5-4.8-2.89-4.81-1-7.3-2.6S50,63.74,54.6,63.6s4.69-.79,3.34-1.42-5.4-1.59-3.79-2.93,4.27-.39,2.83-1.86S52.3,55,53.75,53.17s5.46-1.89,8,2.44,3.31,5.52,5.54,5.88,4.07-2.06,6.76-1.26,2.33,3.37.87,5.13-4,5.24-2.27,6.62,3.41-.92,5.67-1.45c2.51-.59,5.52,1.41,3.34,5S75.73,82,76.12,90C75.49,89.75,74.86,89.55,74.23,89.37Z"/><g class="cls-9"><path class="cls-10" d="M75.31,89.82a.14.14,0,0,1-.16-.1c-7.79-27-19.21-36.38-19.32-36.47A.14.14,0,1,1,56,53c.11.09,11.6,9.53,19.41,36.61a.13.13,0,0,1-.09.16Z"/></g><g class="cls-9"><path class="cls-10" d="M62.86,61.59a.14.14,0,0,1-.09,0,15.15,15.15,0,0,0-7.65-1.73.14.14,0,0,1-.15-.12.13.13,0,0,1,.13-.15,15.46,15.46,0,0,1,7.81,1.76.14.14,0,0,1,.05.19A.13.13,0,0,1,62.86,61.59Z"/></g><g class="cls-9"><path class="cls-10" d="M67.34,69.26a.14.14,0,0,1-.11,0,.14.14,0,0,1,0-.19,54.4,54.4,0,0,1,6.93-7.64.14.14,0,0,1,.19,0,.15.15,0,0,1,0,.2,53.43,53.43,0,0,0-6.89,7.59A.14.14,0,0,1,67.34,69.26Z"/></g><g class="cls-9"><path class="cls-10" d="M66.44,67.55s0,0-.07,0a43.31,43.31,0,0,0-13.66-1.28.13.13,0,0,1-.14-.12.13.13,0,0,1,.12-.15,43.43,43.43,0,0,1,13.76,1.29.13.13,0,0,1,.09.17A.13.13,0,0,1,66.44,67.55Z"/></g><g class="cls-9"><path class="cls-10" d="M72.55,81.33h-.07c-4.51-1.59-11.8-1.17-11.87-1.17a.14.14,0,0,1-.15-.12.14.14,0,0,1,.13-.15c.07,0,7.42-.42,12,1.18a.14.14,0,0,1,.09.17A.14.14,0,0,1,72.55,81.33Z"/></g><g class="cls-9"><path class="cls-10" d="M73.21,83.2h-.06a.13.13,0,0,1-.09-.16c1.47-5.58,6.28-10.31,6.33-10.35a.13.13,0,0,1,.19.19S74.77,77.6,73.32,83.1A.14.14,0,0,1,73.21,83.2Z"/></g><path class="cls-11" d="M77.6,85.31s.05-2.68,4.06-5.18c4.09-2.67,12.71-2,13.89-4.67,1.24-2.88-4.2-2.4-6.47-4.63s-3-3.32.22-3.86,5.23-.69,5.31-3.38,5.38-1.22,8.12-3.11,1.41-4.61-3.81-4.64-5.3-.76-3.79-1.5,6-1.93,4.17-3.39-4.8-.33-3.23-2,5.19-2.85,3.51-4.82-6.18-2-8.91,3-3.55,6.29-6,6.75S80,51.62,77,52.59s-2.52,3.85-.83,5.79,4.61,5.77,2.73,7.37-3.85-.94-6.41-1.47c-2.83-.6-6.15,1.73-3.61,5.72s6.83,7.13,6.61,16C76.19,85.77,76.89,85.53,77.6,85.31Z"/><g class="cls-9"><path class="cls-12" d="M76.4,85.84a.14.14,0,0,0,.17-.11c8-30.52,20.55-41.36,20.68-41.47a.16.16,0,0,0,0-.21.15.15,0,0,0-.22,0c-.13.1-12.75,11-20.77,41.62a.14.14,0,0,0,.1.19Z"/></g><g class="cls-9"><path class="cls-12" d="M89.58,53.82a.16.16,0,0,0,.1,0,17,17,0,0,1,8.55-2.15.15.15,0,0,0,.16-.14.15.15,0,0,0-.14-.17,17.32,17.32,0,0,0-8.72,2.2.14.14,0,0,0,0,.2A.13.13,0,0,0,89.58,53.82Z"/></g><g class="cls-9"><path class="cls-12" d="M84.78,62.55a.2.2,0,0,0,.11,0,.16.16,0,0,0,0-.22,61,61,0,0,0-8-8.37.15.15,0,0,0-.22,0,.14.14,0,0,0,0,.21,59.81,59.81,0,0,1,7.94,8.33A.17.17,0,0,0,84.78,62.55Z"/></g><g class="cls-9"><path class="cls-12" d="M85.74,60.6h.07a48.21,48.21,0,0,1,15.3-1.81.15.15,0,0,0,.16-.14.16.16,0,0,0-.14-.17,48.88,48.88,0,0,0-15.41,1.83.15.15,0,0,0-.1.19A.13.13,0,0,0,85.74,60.6Z"/></g><g class="cls-9"><path class="cls-12" d="M79.26,76.24h.07c5-1.9,13.22-1.63,13.3-1.63a.15.15,0,0,0,.16-.15.15.15,0,0,0-.15-.15c-.08,0-8.34-.28-13.41,1.65a.15.15,0,0,0-.09.19A.14.14,0,0,0,79.26,76.24Z"/></g><g class="cls-9"><path class="cls-12" d="M78.57,78.35s0,0,.06,0a.16.16,0,0,0,.11-.19c-1.81-6.22-7.34-11.39-7.39-11.44a.15.15,0,0,0-.22,0,.15.15,0,0,0,0,.21s5.52,5.17,7.3,11.3A.16.16,0,0,0,78.57,78.35Z"/></g><path class="cls-13" d="M92.18,136.69a19.26,19.26,0,0,0-6.65-5.58c-3-1.52-5.61-1.86-8.09-1.06a14.78,14.78,0,0,0-3.17-1.86l-.45-.21a1.55,1.55,0,0,0-.46-.13,2.14,2.14,0,0,1-.27-.06h0l-.14,0A5,5,0,0,0,71.44,126a5.94,5.94,0,0,1-1.1-1.15,1.28,1.28,0,0,0-.51-.39l-.25-.15-.06,0-.18-.14a3.53,3.53,0,0,0-.64-1.72,7.35,7.35,0,0,1-.81-1.78,1.15,1.15,0,0,0-.28-.42l-.16-.19a1,1,0,0,1-.09-.18,2,2,0,0,0-.46-2.14,2.24,2.24,0,0,0,0-2.3.2.2,0,0,1,0-.11,2.18,2.18,0,0,0,.44-2.1.18.18,0,0,1,0-.1,2.34,2.34,0,0,0,.77-1.38,3.76,3.76,0,0,1,.21-.62,1.38,1.38,0,0,1,.28-.4,3.3,3.3,0,0,0,.66-.85c.08-.13.15-.31.23-.48a2.27,2.27,0,0,1,.15-.34,4,4,0,0,0,1.33-1.47l.07-.12a1.2,1.2,0,0,1,.57-.42,2.74,2.74,0,0,0,.72-.44c.13-.11.28-.27.4-.39S73,106,73,106a.69.69,0,0,0,.13-.11c.06-.06.15-.15.19-.15a2.72,2.72,0,0,0,1.58-.77.37.37,0,0,0,.14-.29.39.39,0,0,0-.12-.31l0,0a.43.43,0,0,0-.33-.11.41.41,0,0,0-.29.16c-.15.2-.38.38-1,.4a3.24,3.24,0,0,0-1.6-2.52,2.21,2.21,0,0,0-.93-.27.79.79,0,0,0-.89.58,1.61,1.61,0,0,0,0,.87,3.56,3.56,0,0,0,2.3,2.13,1.47,1.47,0,0,1-1,.71A3.54,3.54,0,0,0,69,104a2,2,0,0,0-.92-.1.76.76,0,0,0-.78.76,1.65,1.65,0,0,0,.22.91,3.9,3.9,0,0,0,2.63,1.65,1,1,0,0,1-.87.82,3.39,3.39,0,0,0-2.46-1.95,2.56,2.56,0,0,0-1,0,.72.72,0,0,0-.5.32.63.63,0,0,0-.09.53,2.08,2.08,0,0,0,.39.86,4.13,4.13,0,0,0,2.89,1.33l-.67,1a4.27,4.27,0,0,0-3.27-1.61,1.33,1.33,0,0,0-1.06.5,1.1,1.1,0,0,0,.31,1.1,3.93,3.93,0,0,0,3.48,1.15,1.05,1.05,0,0,1-.46,1l0,0a4.31,4.31,0,0,0-.46-.39,4,4,0,0,0-3.06-.77c-.74.12-.93.49-1,.7s0,.57.51,1a4.72,4.72,0,0,0,1.81.78,6,6,0,0,0,1.47,0h.38a1.08,1.08,0,0,1-.13.92l-.73-.2a14.94,14.94,0,0,0-1.86-.42c-1.49-.2-1.89.37-2,.89a1,1,0,0,0,.2.77,2,2,0,0,0,1.48.59,12.68,12.68,0,0,0,2,0l.69,0a1,1,0,0,1-.1,1,3.92,3.92,0,0,0-3-.36c-.42.11-1.33.55-1.36,1.12,0,.87,1,1,1.55,1.08a4.25,4.25,0,0,0,2.84-.56,1.14,1.14,0,0,1,.23,1.13,3,3,0,0,0-.52-.13,3.81,3.81,0,0,0-3.27.72.87.87,0,0,0,.39,1.59,3.06,3.06,0,0,0,1.5,0,15.84,15.84,0,0,0,1.79-.62l.58-.23a.82.82,0,0,1,.28.93,3.86,3.86,0,0,0-3.52,1,.91.91,0,0,0-.32.92c0,.19.24.52.87.65a2.7,2.7,0,0,0,.9,0,3.86,3.86,0,0,0,2.6-1.33,1.44,1.44,0,0,1,.68,1,3.9,3.9,0,0,0-3.15,1.35,1.26,1.26,0,0,0-.21,1.15c.17.41.95.47,1.13.46a3,3,0,0,0,1.26-.3,4.49,4.49,0,0,0,1.46-1.13,3.6,3.6,0,0,1,.33-.36,1,1,0,0,1,.74.89c-1.67.27-2.6,1-3,2.18a.78.78,0,0,0,.25.86,1,1,0,0,0,.79.24,3.48,3.48,0,0,0,2.92-2.27,1.51,1.51,0,0,1,1,.79c-1.86.76-2.6,1.66-2.47,3a.6.6,0,0,0,.22.43.76.76,0,0,0,.58.18,3.08,3.08,0,0,0,2.8-2.75,1.49,1.49,0,0,1,1.08.62,3.19,3.19,0,0,0-2,2.71,1.07,1.07,0,0,0,.53,1,1.55,1.55,0,0,0,1.15-.14,3,3,0,0,0,1.57-2.49c0-.11,0-.22,0-.33a1.75,1.75,0,0,1,1.22.52l-.34.28a2.76,2.76,0,0,0-1.09,2.34,1.59,1.59,0,0,0,.19.63,1.13,1.13,0,0,0,1.13.53,1.22,1.22,0,0,0,.7-.43l0,0a2.92,2.92,0,0,0,.75-3,6,6,0,0,1,3.21-.24A15.52,15.52,0,0,1,90,135.56c.4.4.79.83,1.17,1.23l.39.42a.44.44,0,0,0,.59,0A.4.4,0,0,0,92.18,136.69ZM74.4,130.25a2.19,2.19,0,0,1-1.08,1.8.74.74,0,0,1-.28.08.42.42,0,0,1,0-.2A2.15,2.15,0,0,1,74.4,130.25Zm1.67,3a2,2,0,0,1,1-1.84,1.9,1.9,0,0,1-.66,2s-.07,0-.2,0A.63.63,0,0,1,76.07,133.23Zm-7.79-4.87h-.09a.25.25,0,0,1-.2-.09.1.1,0,0,1,0-.07,0,0,0,0,0,0,0A2.44,2.44,0,0,1,69.91,127,2.66,2.66,0,0,1,68.28,128.36Zm2.36,2a1,1,0,0,1-.28.08.56.56,0,0,1,0-.13A2.34,2.34,0,0,1,72,128.78C71.93,129.53,71.42,130,70.64,130.41ZM68.13,125a2.72,2.72,0,0,1-1.92,1.12.57.57,0,0,1-.26,0,.35.35,0,0,1,0-.13A2.52,2.52,0,0,1,68.13,125Zm-3.7-1.63a2.38,2.38,0,0,1,1.86-.71,3.25,3.25,0,0,1,.44,0,2.49,2.49,0,0,1-2.21.75.14.14,0,0,1-.1-.06ZM63,115s0,0,0,0,0,0,0,0a2.78,2.78,0,0,1,2.33.26A3.6,3.6,0,0,1,63,115Zm2.88-2.28a3.49,3.49,0,0,1-2.35-.58l-.08-.07.15,0A2.77,2.77,0,0,1,65.87,112.7Zm-2.48,8a.1.1,0,0,1,0,0l0,0a2.92,2.92,0,0,1,1.57-.45,4,4,0,0,1,.76.08,4,4,0,0,1-2.14.56l-.11,0-.08,0S63.39,120.7,63.39,120.69Zm1.18-11.08s0-.06,0-.08a.17.17,0,0,1,.13-.09h.12a3.13,3.13,0,0,1,2.09,1A3.24,3.24,0,0,1,64.57,109.61Zm1.84-2.68a2.56,2.56,0,0,1,1.88,1.28A2.84,2.84,0,0,1,66.22,107l0-.07A.49.49,0,0,1,66.41,106.93ZM68.24,105a.38.38,0,0,1,0-.15.45.45,0,0,1,.26,0,2.54,2.54,0,0,1,1.56,1.43A2.26,2.26,0,0,1,68.24,105Zm2.48-2a.57.57,0,0,1,.25,0,2.07,2.07,0,0,1,1.29,1.6c-.89-.3-1.44-.82-1.53-1.47C70.71,103,70.73,103,70.72,103Zm3.76,1.49ZM63,117.83s0-.09.14-.14a2.79,2.79,0,0,1,1.06-.22,2.66,2.66,0,0,1,1.18.28,3,3,0,0,1-2.26.16.13.13,0,0,1-.08,0S63,117.85,63,117.83Z"/><rect class="cls-14" x="94.4" y="88" width="10.63" height="8.93" rx="3.76"/><rect class="cls-14" x="118.39" y="88" width="10.63" height="8.93" rx="3.76"/><rect class="cls-15" x="76.13" y="121.33" width="71.12" height="16.2"/><polygon class="cls-15" points="129.03 97.23 111.7 97.22 94.4 97.23 76.14 121.35 111.7 121.35 147.31 121.35 129.03 97.23"/><rect class="cls-15" x="94.4" y="93.48" width="34.63" height="3.84"/><polygon class="cls-16" points="77.74 120.71 129.02 97.3 94.39 97.3 76.14 121.35 77.74 120.71"/><ellipse class="cls-17" cx="112.21" cy="108.26" rx="15.19" ry="9.2"/><ellipse class="cls-18" cx="111.71" cy="107.25" rx="15.19" ry="9.2"/><path class="cls-19" d="M111.5,104.59c2.62,0,4.74,1.17,4.74,2.62s-2.12,2.62-4.74,2.62-4.74-1.17-4.74-2.62,2.13-2.62,4.74-2.62Z"/><path class="cls-20" d="M111.5,111.94c1.68,0,3,.75,3,1.68s-1.35,1.67-3,1.67-3-.75-3-1.67,1.36-1.68,3-1.68Z"/><path class="cls-20" d="M111.6,99.21c1.67,0,3,.75,3,1.68s-1.35,1.67-3,1.67-3-.74-3-1.67,1.35-1.68,3-1.68Z"/><path class="cls-20" d="M105,100.27c1.67,0,3,.75,3,1.68s-1.36,1.67-3,1.67-3-.75-3-1.67,1.36-1.68,3-1.68Z"/><path class="cls-20" d="M118.13,100.45c1.67,0,3,.74,3,1.67s-1.36,1.68-3,1.68-3-.75-3-1.68,1.35-1.67,3-1.67Z"/><path class="cls-20" d="M101,107.55c1.67,0,3,.75,3,1.68s-1.36,1.67-3,1.67-3-.75-3-1.67,1.35-1.68,3-1.68Z"/><path class="cls-20" d="M122.59,107.56c1.67,0,3,.75,3,1.67s-1.36,1.68-3,1.68-3-.75-3-1.68,1.35-1.67,3-1.67Z"/><path class="cls-20" d="M105.18,110.8c1.67,0,3,.75,3,1.68s-1.35,1.67-3,1.67-3-.75-3-1.67,1.35-1.68,3-1.68Z"/><path class="cls-20" d="M118.26,110.81c1.67,0,3,.75,3,1.67s-1.36,1.68-3,1.68-3-.75-3-1.68,1.35-1.67,3-1.67Z"/><path class="cls-20" d="M122.59,103.25c1.67,0,3,.75,3,1.68s-1.36,1.67-3,1.67-3-.75-3-1.67,1.35-1.68,3-1.68Z"/><path class="cls-20" d="M100.83,103.52c1.67,0,3,.75,3,1.67s-1.35,1.68-3,1.68-3-.75-3-1.68,1.35-1.67,3-1.67Z"/><polygon class="cls-16" points="76.17 137.48 108.02 137.34 147.31 121.35 76.15 121.35 76.13 137.53 76.17 137.48"/><path class="cls-15" d="M148.6,108.61c-5.84-2.45-11.67-5-17.49-7.45-2.73-1.17-3.36-2.48-2.58-5.32.38-1.42.77-2.84,1.19-4.34.29-1.08.6-2.2.93-3.4a132.57,132.57,0,0,0-19.24-1.6,132.94,132.94,0,0,0-19.22,1.85c.26.89.51,1.75.76,2.58l1.48,5.12c.81,2.83.19,4.15-2.52,5.36q-8.68,3.86-17.39,7.67c-1.9.83-2.52.33-4-1.12a10.34,10.34,0,0,1-3.11-8.77A26.28,26.28,0,0,1,67.83,96c.89-4.61,1.57-9.51,4.57-13.15a12,12,0,0,1,3.54-2.35,92.36,92.36,0,0,1,27.62-7.64c2.59-.31,5.12-.5,7.76-.57s5.17.19,7.77.47A92.79,92.79,0,0,1,146.81,80a12.18,12.18,0,0,1,3.57,2.31c3.05,3.6,3.79,8.49,4.74,13.09a18.8,18.8,0,0,1,.42,6.28,9.76,9.76,0,0,1-2.94,5.73C151.12,108.91,150.51,109.42,148.6,108.61Z"/><g class="cls-21"><ellipse class="cls-22" cx="133.94" cy="73.56" rx="9.12" ry="22.21" transform="translate(27.48 183.18) rotate(-74.61)"/><ellipse class="cls-22" cx="66.19" cy="104.82" rx="9.12" ry="22.21" transform="translate(-40.28 41.32) rotate(-26.92)"/></g><path class="cls-23" d="M148.6,108.61c-5.84-2.45-11.67-5-17.49-7.45-2.73-1.17-3.36-2.48-2.58-5.32.38-1.42.77-2.84,1.19-4.34a106.49,106.49,0,0,1,25.82,10.21,9.76,9.76,0,0,1-2.94,5.73C151.12,108.91,150.51,109.42,148.6,108.61Z"/><path class="cls-23" d="M91.91,101.41q-8.68,3.86-17.39,7.67c-1.9.83-2.52.33-4-1.12a10.34,10.34,0,0,1-3.11-8.77A94.61,94.61,0,0,1,93,90.93l1.48,5.12C95.24,98.88,94.62,100.2,91.91,101.41Z"/><path class="cls-13" d="M145.77,67.15c2-.07,4.27-.48,4.85,2.11.78,3.52-2.63,3.74-4.52,5.12-.68,1.52-2.2,1.69-3.51,2.19a6.71,6.71,0,0,1-4.1-.38c-2-.87-2.76,1.24-4.22,1.63-1.39,0-2.67,1-4.12.49-1.7-1-4.08-.56-5.41-2.42-1.77-.89-3.6-1.66-5.28-2.69-2.73-1.69-3.48-3.73-.62-6.06a2.24,2.24,0,0,1,2.24-.35c2.61,1,5.2.36,7.8-.15a9.36,9.36,0,0,1,1.27-.3c1.63-.23,3.27-.15,4.91-.28C138.66,66.18,142.36,65.28,145.77,67.15Z"/><path class="cls-24" d="M135,53.34l3.38-.56c3.37.66,4.87,2.52,3.84,6a4.57,4.57,0,0,1-3.48,1,3.43,3.43,0,0,0-3.8,3A5.79,5.79,0,0,1,133.59,65,8.12,8.12,0,0,1,130,66.34c-3.38-.36-7-.33-6.59-5.45.1-1.39-2.18-1.09-2.71-2.34,2.32-5.78,2.91-6.1,10.12-5.6a4.13,4.13,0,0,0,3.63.44Z"/><path class="cls-25" d="M120.71,58.55c2.09.59,6.41-.83,3.59,4.14-.73,1.29.59,1.63,1.52,1.91,1.35.4,2.72.73,4.08,1.09a.76.76,0,0,1,.25.62c0,.22-.06.34-.11.34a3.92,3.92,0,0,1-1,.44l0,.18a14.72,14.72,0,0,1-7.71,0l-2.48-.16C116.8,63.7,120.21,61.44,120.71,58.55Z"/><path class="cls-12" d="M144.4,77.59l-2.46.84-4.11-.11c-.72-1.17-.24-2.13.53-3l4.55.52C144.64,75.37,145.32,75.82,144.4,77.59Z"/><path class="cls-25" d="M138.36,75.29a3.78,3.78,0,0,1-.54,3,5,5,0,0,1-3.55-.5C135.61,76.94,134.88,72.71,138.36,75.29Z"/><path class="cls-12" d="M124.74,75.89c1.79.83,4.31,0,5.41,2.42a31.39,31.39,0,0,1-5.7-.69C122.52,77,124.07,76.39,124.74,75.89Z"/><path class="cls-26" d="M132.29,49.09c.63-3,3.25-2.16,4.41-1.42,1.49.94-.38,1.6-1.18,2.17A2.46,2.46,0,0,1,132.29,49.09Z"/><path class="cls-25" d="M132.33,49.09l2.75.64c-.07.65-.13,1.3-.2,2-1.34,1.38-2.2.14-3.15-.59C131.6,50.33,131.42,49.55,132.33,49.09Z"/><path class="cls-26" d="M131.73,51.1l3.15.59.12,1.65-.23,0c-1.47,1.36-2.43.69-3.18-.8Z"/><path class="cls-25" d="M131.59,52.59c1,.62,1.91,1.39,3.18.8-1.36,2.34-2.23,2.25-3.94-.44A4.82,4.82,0,0,1,131.59,52.59Z"/><path class="cls-27" d="M141.94,58.74c1.11.1,2.21.74,3.32,0,1.5,2.72-.8,5.66.51,8.39l-11.62,0c-1.09-1.45-.37-2.9,0-4.35-.4-3.1.86-4.41,4-4A20.85,20.85,0,0,0,141.94,58.74Z"/><path class="cls-12" d="M121.32,67.3l7.71,0C126.47,68.4,123.9,69,121.32,67.3Z"/><path class="cls-28" d="M134.13,62.82c0,1.45,0,2.9,0,4.35l-5.09-.08.83-.75c1-.76,2.45-.53,3.39-1.47Z"/><path class="cls-29" d="M133.28,64.87c-.21,2.61-2.14,1.26-3.39,1.47,0-.22,0-.43,0-.65A4.4,4.4,0,0,1,133.28,64.87Z"/><rect class="cls-27" x="134.15" y="58.44" width="11.64" height="8.72"/><path class="cls-6" d="M64.7,139.76c0,1.2-6.91,2.17-15.43,2.17s-15.43-1-15.43-2.17,6.91-2.17,15.43-2.17S64.7,138.57,64.7,139.76Z"/><path class="cls-13" d="M59.5,139.48l1.45-.14L57.1,99l-1.46.14.24,2.41H49.21l.23-2.41L48,99l-3.86,40.32,1.46.14.24-2.57H59.25Zm-2.7-28.23H48.29l.32-3.38h7.87Zm.14,1.46.32,3.38H47.82l.33-3.38Zm.46,4.84.33,3.38H47.36l.32-3.38Zm.47,4.84.32,3.38H46.9l.32-3.38Zm.46,4.84.32,3.38H46.44l.32-3.38ZM56,103l.32,3.38H48.75l.32-3.38ZM46,135.45l.33-3.38H58.79l.32,3.38Z"/><path class="cls-30" d="M56.87,99.33H48.21a.5.5,0,0,1-.5-.5h0a.5.5,0,0,1,.5-.5h8.66a.5.5,0,0,1,.5.5h0A.5.5,0,0,1,56.87,99.33Z"/><circle class="cls-31" cx="139.97" cy="62.82" r="1.65"/><path class="cls-13" d="M48.87,95.44c.32,3,2.88,2.87,4.85,3.1a51.71,51.71,0,0,0,7.47,0,2.4,2.4,0,0,1,2.55,1.48c.66,1.33,1.63,2.5,2.32,3.82a2.32,2.32,0,0,0,2.19,1.34c.78.26,1.51.87,2.39.28a2,2,0,0,0-.18-2.26c-1-1.56,0-1.75,1.23-1.64a.49.49,0,0,0,.15-.41c0-.15-.06-.22-.1-.22-.65-.55-1.61-.34-2.23-1-1-1.34-1.74-2.84-2.64-4.23-.67-1-1.45-1.86-2.84-1.56a19.55,19.55,0,0,1-6.34,0,4.12,4.12,0,0,0-1.07-.37,13.82,13.82,0,0,0-3,.34C52.05,94.7,50.23,94.21,48.87,95.44Z"/><path class="cls-32" d="M71,104.23a5.21,5.21,0,0,0-3.81-.44l.54,1.6c1.4,3.88,4.58,1.36,7.35,2.39C74.1,105.47,71.84,105.69,71,104.23Z"/><path class="cls-33" d="M49.62,83.08l-.9.56c-1.18.9-2.73.8-4,1.49a1.66,1.66,0,0,1,.36,1.45c-.39,1.58,0,2.63,1.84,2.71a4.52,4.52,0,0,1,2.82,1.39c1.86,1.58,3.86,2.95,6.52,2.36,1.06-.56.58-1.41.28-2.07a1.78,1.78,0,0,1,.8-2.43c-.12-3.51-2.54-5.79-5.61-5.32C51,84,50.3,83.51,49.62,83.08Z"/><path class="cls-34" d="M56.73,92.62a7.59,7.59,0,0,1-7.06-3.13,2.29,2.29,0,0,0-2.39-.83c-1.61.16-2.28-.52-2.19-2.08-.91,2.3.4,4.14,1.28,6.07,2.05,2.22,4.58,2.68,7.42,2a7.09,7.09,0,0,0,2.88-.47,12.86,12.86,0,0,1,1.86.07A5.5,5.5,0,0,0,60.87,94a1,1,0,0,0,.39-1.44A3,3,0,0,0,59.2,92,3.06,3.06,0,0,0,56.73,92.62Z"/><path class="cls-33" d="M53.79,94.67c-2.77.4-5.12-.71-7.42-2,.33,1.38,2,1.55,2.5,2.79A16.47,16.47,0,0,0,53.79,94.67Z"/><path class="cls-35" d="M60.28,89.22l-1.45.83a.56.56,0,0,0-.71,0c-.53,1.3.32,1.9,1.25,2.46l1.79.18c1.21-1.16,2-2.44,1-4.12a2,2,0,0,0-.42,0c-.59-.29-.77.23-1.06.53A2,2,0,0,1,60.28,89.22Z"/><path class="cls-24" d="M53.18,79.88a2.38,2.38,0,0,0-.2-.69l-3.14.23c-.65.94-1.91,1.92.14,2.71,1.53.27,2.08-.87,2.71-1.89A1.6,1.6,0,0,1,53.18,79.88Z"/><path class="cls-35" d="M60.77,93.79l-2.56,0c0,.69.32,1,1,1.08,1.65-.08,3.32.22,5-.17,1.3-.32,1.75.7,2.27,1.51.93,1.46,1.78,3,2.66,4.47a1,1,0,0,0,.8-.62c.16-1-.56-1.77-.53-2.72a5.77,5.77,0,0,0-.62-2.74,18.29,18.29,0,0,1-1.15-2.87,5.18,5.18,0,0,0-.81-1.11c-.06-.15-.11-.31-.17-.46-.26,0-.59,0-.62.25C65.52,93.5,63.12,93.61,60.77,93.79Z"/><path class="cls-13" d="M64.16,94.68l-5.51-.14c-.5-.25-1-.38-1.44.1A11.38,11.38,0,0,0,64.16,94.68Z"/><path class="cls-36" d="M69.88,99.79l-1.08,1c1.17,1.13,2.61.59,4,.65-.27-1.19-1.54-1-2.22-1.61C70.34,99.57,70.12,99.54,69.88,99.79Z"/><path class="cls-12" d="M57.21,94.64l1.44-.1c-.15-.25-.3-.51-.44-.77a1.46,1.46,0,0,0-1.54.43Z"/><path class="cls-34" d="M51.76,80.73c-.83-.38-1.36.44-2.08.53-.51.59.14,1.22-.06,1.82.12.59,0,1.34.83,1.51s1.18-.22,1.31-1Z"/><path class="cls-27" d="M60.77,93.79c4.07,1,4.34.84,5.84-3.65.09-.78,1-2.06.34-2.18-1.55-.3-3.39-1-4.77.62.08,1.47-.8,2.71-1,4.12C61.22,93.13,61.21,93.54,60.77,93.79Z"/><path class="cls-37" d="M59.37,92.52c-.3-.85-1.16-1.42-1.2-2.39-.17-.53-.63-.88-.86-1.37a1.89,1.89,0,0,1-.11-.25c-1.8-.16-2.1.67-1.41,2.14.31.66.62,1.32.94,2Z"/><polygon class="cls-27" points="60.77 93.79 61.76 88.58 63.09 87.55 67.67 87.83 65.6 94.44 59.05 94.32 59.37 93.73 60.77 93.79"/><ellipse class="cls-38" cx="64.85" cy="90.76" rx="0.69" ry="0.55" transform="translate(-3.53 2.63) rotate(-2.26)"/><polygon class="cls-38" points="61.76 88.58 63.09 87.55 60.87 93.95 60.77 93.79 61.76 88.58"/><path class="cls-18" d="M38.45,77.05h4.83l2.6,2.48V77.05H47a1.41,1.41,0,0,0,1.4-1.41V70.43A1.4,1.4,0,0,0,47,69H38.45a1.4,1.4,0,0,0-1.4,1.4v5.21a1.41,1.41,0,0,0,1.4,1.41Zm0,0"/><path class="cls-13" d="M43.14,77.41l2.5,2.38a.31.31,0,0,0,.24.1.4.4,0,0,0,.15,0,.34.34,0,0,0,.21-.32V77.41H47a1.77,1.77,0,0,0,1.77-1.77V70.43A1.76,1.76,0,0,0,47,68.67H38.45a1.76,1.76,0,0,0-1.76,1.76v5.21a1.77,1.77,0,0,0,1.76,1.77Zm-5.73-1.77V70.43a1,1,0,0,1,1-1H47a1,1,0,0,1,1.05,1v5.21a1,1,0,0,1-1.05,1h-1.1a.36.36,0,0,0-.36.36V78.7l-2-1.91a.39.39,0,0,0-.25-.1H38.45a1,1,0,0,1-1-1Zm0,0"/><path class="cls-15" d="M42.71,73.54a.62.62,0,0,0,.43-.18.58.58,0,0,0,.18-.43.6.6,0,0,0-.18-.43.62.62,0,0,0-.43-.18.61.61,0,0,0-.61.61.62.62,0,0,0,.18.43.6.6,0,0,0,.43.18Z"/><path class="cls-15" d="M45,73.54a.64.64,0,0,0,.43-.18.62.62,0,0,0,.18-.43.61.61,0,0,0-.61-.61.62.62,0,0,0-.43.18.6.6,0,0,0-.18.43.61.61,0,0,0,.61.61Z"/><path class="cls-15" d="M40.45,73.54a.62.62,0,0,0,.43-.18.58.58,0,0,0,.18-.43.6.6,0,0,0-.18-.43.62.62,0,0,0-.43-.18.6.6,0,0,0-.42.18.61.61,0,0,0-.19.43.59.59,0,0,0,.19.43.56.56,0,0,0,.42.18Z"/><path class="cls-35" d="M160.1,111.71a4.87,4.87,0,0,0-2.46,1.42,1.61,1.61,0,0,0-1.29,1.71,1,1,0,0,0,.34.35c1.11.43,1.24,1.29,1,2.31a2.35,2.35,0,0,0,0,.53c.17.6.05,1.33.74,1.71,2,.06,4.1,0,6.14,0,1.4,0,2.27-.53,2-2.06s.85-2,1.54-2.84c.54-1.21-.48-1.52-1.16-2-.92-.34-1.65-1.18-2.74-1.07A13.54,13.54,0,0,1,160.1,111.71Z"/><path class="cls-13" d="M169.48,122.51l-1.1.07c-1.27,1.7-3.11,1.63-4.95,1.62a2.07,2.07,0,0,0-2.19,1.49,1.83,1.83,0,0,0,1,2.38,4.66,4.66,0,0,0,2.76.29,1.78,1.78,0,0,0,.85-.41c1.32-.18,2.7.21,4-.35l.78-1.15a17.44,17.44,0,0,0,.11-3.15c0-.49,0-1-.66-1A.94.94,0,0,0,169.48,122.51Z"/><path class="cls-13" d="M167.87,121.37h2.34a40.83,40.83,0,0,0,.15-6.35,5.23,5.23,0,0,1,.12-1.58h.15c-1-1.31-2.47-.51-3.72-.66,0,.82,1.15.93,1.12,1.78A30.33,30.33,0,0,1,167.87,121.37Z"/><path class="cls-39" d="M160.1,111.71a3.06,3.06,0,0,0,4.07,0c-1.24-.62-1.19-1.7-1-2.83-.65-.94-1.6-.67-2.5-.61l-.3.45a1.41,1.41,0,0,0,0,1.68c.24.37.46.72,0,1.09Z"/><path class="cls-5" d="M162.22,127.9c-.51-.75-1.08-1.49-.53-2.45s1.37-.82,2.22-.81a8.69,8.69,0,0,1,1.25,0c1.73.31,2.87-.26,3.22-2.07l-14-.09a1.33,1.33,0,0,0-1.16.34,5.63,5.63,0,0,0,4.42.27,2.87,2.87,0,0,0-.8,2.54,5.07,5.07,0,0,0,.7,2.27c.38,2.93.77,5.86,1.13,8.8a3,3,0,0,0,.42,1.33,1.7,1.7,0,0,0,2.36,0c.78-.51.41-1.31.46-2,.17-2.61-.3-5.25.33-7.84q.18-.1.12-.21C162.3,127.94,162.26,127.9,162.22,127.9Z"/><path class="cls-40" d="M157.21,125.73a4.07,4.07,0,0,1,1-2.9h-5a.82.82,0,0,1-.35,0c-1.74.41-2,1.85-1.9,3.21q.47,5.17,1.29,10.32a1.85,1.85,0,0,0,.83,1.51,1.69,1.69,0,0,0,1,.07c1.14-.17,1.58-.79,1.53-2-.1-2,0-4,0-6,.13,2-.23,4,.24,6l.25-.1a3.49,3.49,0,0,0,0-2.9l0-1.07a3,3,0,0,0,0-2.17l0-2.06A21.71,21.71,0,0,0,157.21,125.73Z"/><path class="cls-12" d="M153.92,137.69l-.7.14c-.74.32-1.49.63-1.6,1.59l.13.09a7.06,7.06,0,0,0,3.65-.06,2.68,2.68,0,0,1,.21-1.63C155.09,137.26,154.5,137.5,153.92,137.69Z"/><path class="cls-12" d="M161.43,138h-2.36c-.31.37-.61.74-.92,1.1,1,1,2.19.47,3.32.34Z"/><path class="cls-40" d="M153.92,137.69l1.69.13c.51-.58.16-1.23.17-1.85v-6.2h-.41c0,1.85-.09,3.71,0,5.55A2,2,0,0,1,153.92,137.69Z"/><path class="cls-13" d="M157.21,125.73c-1.29.13-1.15,1-1.08,1.94l1.39.24C157.47,127.17,157.71,126.4,157.21,125.73Z"/><path class="cls-12" d="M161.47,139.48c-1.09-.22-2.26.24-3.32-.34-.11.22-.58.58-.35.59C159,139.8,160.31,140.3,161.47,139.48Z"/><path class="cls-41" d="M167.36,138.5c-1.84-1-1.53-2.66-1.52-4.26q0-3.15,0-6.29l-.73,0c0,2.76,0,5.51,0,8.27.12.95-1.06,1.24-1.07,2.13h0c-.35.06-.35-.35-.35.06s0,1.08.35,1a4.41,4.41,0,0,0,1.24-1.94A2.34,2.34,0,0,1,166.6,139c.12.41.42.63.8.39A.49.49,0,0,0,167.36,138.5Z"/><path class="cls-39" d="M167.87,121.37a7.64,7.64,0,0,0,.16-6.8c-1.49.7-2.68,1.52-1.95,3.51.37,1-.3,1.2-1.17,1.2a49.2,49.2,0,0,0-6.65.16.49.49,0,0,0-.44.15c-.11.5-.24,1,.34,1.35a2.57,2.57,0,0,0,1.32,0c1.29.21,2.61.17,3.89.45Z"/><path class="cls-39" d="M156.59,114.81l-1.51,1.74.63,3c1.28.06,1.75-.86,2.2-1.81a.46.46,0,0,1,0-.26,2.71,2.71,0,0,0-1.08-2.59A.54.54,0,0,1,156.59,114.81Z"/><path class="cls-39" d="M156.84,114.9l1.08,2.59C158.62,116.18,158.37,115.27,156.84,114.9Z"/><path class="cls-13" d="M170.48,113.45c-.86.83-.19,1.82-.24,2.73-.1,1.73,0,3.47,0,5.2.81-1.32.29-2.77.37-4.16S170.52,114.71,170.48,113.45Z"/><path class="cls-39" d="M156.36,120.8l1.32.76c.49.1,1,.36,1.33,0,.82-.21.89-.83.84-1.52C158.42,119.82,156.21,118.35,156.36,120.8Z"/><polygon class="cls-31" points="148.14 121.36 146.79 115.73 154.97 115.73 156.85 120.98 160.33 120.98 159.7 121.51 148.35 121.51 148.14 121.36"/><path class="cls-39" d="M162.77,111.26a2.05,2.05,0,0,0,.47-1,5,5,0,0,0,0-2.25c-.23-.83-1-1.73-1.9-1.64-1.09.11-1.23,1.53-1.29,2.48a3,3,0,0,0,.54,2.12A1.34,1.34,0,0,0,162.77,111.26Z"/><path class="cls-42" d="M162.68,105.82a2.89,2.89,0,0,0-1.79.26,1.81,1.81,0,0,0-.64.39,1.88,1.88,0,0,0-.45,1.19,2.13,2.13,0,0,0,.35,1.7,3.34,3.34,0,0,1,.16-1.24c0-.28.09-.6.35-.71a.81.81,0,0,1,.53,0c.45.14.9.27,1.35.42s.44.29.59.71a1.11,1.11,0,0,1,0,1c0,.07-.11.13-.15.2-.22.34,0,.8-.06,1.18a3,3,0,0,1-.44,1,2.91,2.91,0,0,1-1.83,1.32,4.87,4.87,0,0,1,1.47.3,4,4,0,0,0,1.34.18.7.7,0,0,0,.35-.09A.66.66,0,0,0,164,113a1.32,1.32,0,0,1-.08-.73c.11-.34.51-.47.77-.72a1,1,0,0,0,.29-.76c0-.29-.17-.59-.06-.86a1.69,1.69,0,0,1,.23-.36c.43-.68-.07-1.8-.49-2.37a3.93,3.93,0,0,0-1.72-1.29Z"/><rect class="cls-13" x="142.18" y="121.27" width="28.86" height="1.56"/><ellipse class="cls-43" cx="151.32" cy="118.15" rx="1.01" ry="0.66"/><rect class="cls-5" x="162.78" y="115.12" width="1.91" height="0.61"/><rect class="cls-5" x="127.51" y="57.85" width="3.31" height="0.89"/><rect class="cls-5" x="49.75" y="87" width="2.01" height="0.55"/><path class="cls-18" d="M170.26,103.29a.32.32,0,0,0,0-.27,4.83,4.83,0,0,1,4.2-7.09,4.85,4.85,0,0,1,4.92,4.91,4.86,4.86,0,0,1-4.85,4.76,4.78,4.78,0,0,1-2.25-.56.42.42,0,0,0-.15,0l-.11,0-2.39.82a.13.13,0,0,1-.13,0,.12.12,0,0,1,0-.14Z"/><path class="cls-13" d="M168.81,105.45a.82.82,0,0,0,.19.83.84.84,0,0,0,.57.24.75.75,0,0,0,.26,0l2.25-.77a5.52,5.52,0,0,0,2.43.57h0a5.51,5.51,0,0,0,5.5-5.42,5.48,5.48,0,0,0-3.4-5.17,5.5,5.5,0,0,0-7,7.53Zm.63.22.82-2.38a.32.32,0,0,0,0-.27,4.83,4.83,0,0,1,4.2-7.09,4.85,4.85,0,0,1,4.92,4.91,4.86,4.86,0,0,1-4.85,4.76,4.78,4.78,0,0,1-2.25-.56.42.42,0,0,0-.15,0l-.11,0-2.39.82a.13.13,0,0,1-.13,0A.12.12,0,0,1,169.44,105.67Z"/><path class="cls-15" d="M172.9,101.5a.62.62,0,0,0,.43-.18.6.6,0,0,0,.18-.43.58.58,0,0,0-.18-.43.62.62,0,0,0-.43-.18.6.6,0,0,0-.42.18.59.59,0,0,0-.19.43.61.61,0,0,0,.19.43.56.56,0,0,0,.42.18Z"/><path class="cls-15" d="M174.61,101.5a.6.6,0,0,0,.43-.18.6.6,0,0,0,.18-.43.58.58,0,0,0-.18-.43.59.59,0,0,0-.85,0,.59.59,0,0,0-.19.43.61.61,0,0,0,.19.43.56.56,0,0,0,.42.18Z"/><path class="cls-15" d="M176.33,101.5a.6.6,0,0,0,.42-.18.61.61,0,0,0,.19-.43.59.59,0,0,0-.19-.43.59.59,0,0,0-.85,0,.58.58,0,0,0-.18.43.6.6,0,0,0,.18.43.57.57,0,0,0,.43.18Z"/><g class="cls-44"><path class="cls-13" d="M162.78,96.85a.59.59,0,0,1-.59-.59V94.8a.59.59,0,0,1,1.17,0v1.46A.59.59,0,0,1,162.78,96.85Zm0-5.84a.58.58,0,0,1-.59-.59V89a.59.59,0,1,1,1.17,0v1.45A.58.58,0,0,1,162.78,91Zm0-5.84a.58.58,0,0,1-.59-.58V83.13a.59.59,0,0,1,1.17,0v1.46A.58.58,0,0,1,162.78,85.17Zm0-5.84a.58.58,0,0,1-.59-.58v-.48a.59.59,0,1,1,1.17,0v.48A.58.58,0,0,1,162.78,79.33Z"/><circle class="cls-13" cx="162.91" cy="100.15" r="0.78"/></g><path class="cls-45" d="M131.39,31.35v2.28a2.32,2.32,0,0,0,2.35,2.29h0a2.32,2.32,0,0,0,2.35-2.29V31.35Z"/><path class="cls-46" d="M131.39,31.13h4.7V31A4.5,4.5,0,0,1,138,27.38a6.78,6.78,0,0,0,2.82-5.47,7.06,7.06,0,0,0-14.1-.39,6.74,6.74,0,0,0,2.82,5.87A4.43,4.43,0,0,1,131.39,31Z"/><path class="cls-31" d="M133.74,15.06V31.13h2.35V31A4.5,4.5,0,0,1,138,27.38a6.78,6.78,0,0,0,2.82-5.47A7,7,0,0,0,133.74,15.06Z"/><ellipse class="cls-47" cx="133.74" cy="23.62" rx="2.71" ry="2.63"/><g class="cls-48"><rect class="cls-13" x="129.2" y="31.78" width="8.46" height="0.51"/><rect class="cls-13" x="129.2" y="32.81" width="8.46" height="0.51"/><rect class="cls-13" x="129.2" y="33.84" width="8.46" height="0.51"/><rect class="cls-13" x="129.2" y="34.87" width="8.46" height="0.51"/></g><path class="cls-15" d="M134.21,12.67a.6.6,0,0,0,.59-.61V10.19a.58.58,0,0,0-.6-.59.57.57,0,0,0-.58.59v1.87A.59.59,0,0,0,134.21,12.67Z"/><path class="cls-15" d="M121.85,17.93l1.32.76a1.08,1.08,0,0,0,.59.24.58.58,0,0,0,.58-.59.64.64,0,0,0-.38-.55l-1.52-.88a.64.64,0,0,0-.43-.09.59.59,0,0,0-.48.5A.61.61,0,0,0,121.85,17.93Z"/><path class="cls-15" d="M146,17.93l-1.33.76a1.08,1.08,0,0,1-.58.24.58.58,0,0,1-.58-.59.62.62,0,0,1,.37-.55l1.53-.88a.58.58,0,0,1,.9.41A.61.61,0,0,1,146,17.93Z"/><path class="cls-15" d="M124.67,28.76a1,1,0,0,0,0-.18.59.59,0,0,0-.9-.34l-1.62.93a.6.6,0,0,0-.21.79.59.59,0,0,0,.78.24l1.67-1A.54.54,0,0,0,124.67,28.76Z"/><path class="cls-15" d="M143.76,28.76a1,1,0,0,1,0-.18.59.59,0,0,1,.9-.34l1.62.93a.6.6,0,0,1,.21.79.59.59,0,0,1-.78.24l-1.67-1A.54.54,0,0,1,143.76,28.76Z"/><path class="cls-15" d="M147.53,23c-.62,0-1.24,0-1.85,0a.56.56,0,0,0-.54.24.55.55,0,0,0,.07.75.43.43,0,0,0,.39.18h1.91a.59.59,0,0,0,0-1.17Z"/><path class="cls-15" d="M122.7,23c-.61,0-1.23,0-1.85,0a.58.58,0,0,0-.54.24.56.56,0,0,0,.07.75.45.45,0,0,0,.4.18h1.91a.6.6,0,0,0,.58-.55A.59.59,0,0,0,122.7,23Z"/><path class="cls-15" d="M127.38,15a.79.79,0,0,0,.17,0,.59.59,0,0,0,.35-.9L127,12.44a.59.59,0,0,0-1,.57l1,1.67A.57.57,0,0,0,127.38,15Z"/><path class="cls-15" d="M140.92,15a.82.82,0,0,1-.18,0,.59.59,0,0,1-.35-.9l.94-1.61a.59.59,0,0,1,1,.57l-1,1.67A.55.55,0,0,1,140.92,15Z"/><path class="cls-31" d="M133.74,21a2.63,2.63,0,1,0,0,5.26Z"/><rect class="cls-13" x="131.39" y="30.67" width="4.7" height="0.46"/><path class="cls-49" d="M134.49,25.63a3.52,3.52,0,0,0,1-.42l1,.72.86-.85-.73-.95a2.9,2.9,0,0,0,.41-1l1.21-.16,0-1.22L137,21.62a4,4,0,0,0-.42-1l.72-.94-.88-.86-.95.74a3.14,3.14,0,0,0-1-.42l-.17-1.2-1.22,0L133,19.14a3.83,3.83,0,0,0-1,.42l-1-.72-.82.87.73.95a3,3,0,0,0-.41,1l-1.2.16,0,1.22,1.17.15a3.71,3.71,0,0,0,.42,1l-.73.94L131,26l1-.73a3,3,0,0,0,1,.41l.16,1.2h1.22Zm-.76-2.28a1,1,0,1,1,1-1A.94.94,0,0,1,133.73,23.35Z"/><path class="cls-13" d="M131.93,20.86a2.36,2.36,0,1,0,3.32-.29A2.39,2.39,0,0,0,131.93,20.86Zm3,2.52a1.57,1.57,0,1,1-.19-2.21A1.58,1.58,0,0,1,134.94,23.38Z"/><circle class="cls-50" cx="36.17" cy="119.22" r="2.33"/><circle class="cls-15" cx="182.35" cy="115.12" r="2.33"/><circle class="cls-15" cx="66.19" cy="29.95" r="2.33"/><circle class="cls-51" cx="86.79" cy="33.71" r="2.33"/><circle class="cls-52" cx="39.84" cy="50.7" r="2.33"/></g></svg>