<svg id="Layer_1" data-name="Layer 1" xmlns="http://www.w3.org/2000/svg" xmlns:xlink="http://www.w3.org/1999/xlink" viewBox="0 0 526.66 430.36"><defs><style>.cls-1,.cls-52{fill:none;}.cls-2{fill:#2da9e1;opacity:0.05;}.cls-3{opacity:0.08;}.cls-4{fill:#53c4c6;}.cls-5{fill:#e0e8ee;}.cls-6{fill:#464958;}.cls-7{fill:#c0d0d8;}.cls-8{fill:#c0d6dd;}.cls-9{fill:#fff;}.cls-10{fill:#d9e3e4;}.cls-11{fill:#965848;}.cls-12{fill:#4a3e58;}.cls-13{fill:#d0d2d3;}.cls-14{fill:#b36457;}.cls-15,.cls-31{fill:#474958;}.cls-16{fill:#87aaab;}.cls-17{fill:#5b7372;}.cls-18{fill:#638989;}.cls-19{fill:#102235;}.cls-20{fill:#e6e7e7;}.cls-21{fill:#ffd011;}.cls-22{fill:#faa61a;}.cls-23{fill:#555a76;}.cls-24{fill:#bdbec0;}.cls-25{fill:#f0b12f;}.cls-26{opacity:0.2;}.cls-27,.cls-41{fill:#81a2af;}.cls-28{fill:#ecbc5b;}.cls-29{fill:#ecebec;}.cls-30{fill:#f0efef;}.cls-31{opacity:0.6;}.cls-32{fill:#70ac86;}.cls-33{fill:#8db0da;}.cls-34{fill:#f9d581;}.cls-35{fill:#d0d1d2;}.cls-36{fill:#d68329;}.cls-37{fill:#f8da7a;}.cls-38{clip-path:url(#clip-path);}.cls-39{fill:#f2f2f2;}.cls-40{fill:#2e313d;}.cls-40,.cls-41{opacity:0.5;}.cls-42{fill:#dfdcdf;}.cls-43{fill:#e5e6e6;}.cls-44{fill:#659778;}.cls-45{fill:#efb4a4;}.cls-46{fill:#59976d;}.cls-47{fill:#6e6f72;}.cls-48{fill:#fcb131;}.cls-49{fill:#c2b59b;}.cls-50{fill:#64687b;}.cls-51{fill:#414142;}.cls-52{stroke:#fff;stroke-miterlimit:10;stroke-width:0.5px;}.cls-53{fill:#689d7b;}.cls-54{fill:#598467;}.cls-55{fill:#1f0e0d;}</style><clipPath id="clip-path"><path class="cls-1" d="M326.11,113.87v4.21a4.28,4.28,0,0,0,4.33,4.21h0a4.28,4.28,0,0,0,4.33-4.21v-4.21Z"/></clipPath></defs><circle class="cls-2" cx="266.23" cy="215.18" r="166.8"/><g class="cls-3"><path class="cls-4" d="M444.38,245.08c-5.74-16-14.77-20.86-23.36-31.12-10.5-12.53-17.57-21.63-14.85-37.75,4.45-26.33,6.36-92-63.35-83.41-25,3.07-44.73,22.22-59.09,41.33-12.23,16.26-34.21,17.7-51.91,21.49-21.74,4.66-43.89,11.7-64,22-41.43,21.23-53.8,51.76-52.11,90.82.51,11.8,2.18,30.38,22.11,52.13,26.91,29.36,66,33.29,113.06,19.81,10.77-3.09,20.95-7.93,31.55-11.57a148.54,148.54,0,0,1,34-7.39c27-2.62,55,2.11,81-6A85.36,85.36,0,0,0,433.64,293C446,280,450.43,262,444.38,245.08Z"/></g><ellipse class="cls-5" cx="266.23" cy="309.51" rx="113.5" ry="9.05"/><rect class="cls-6" x="190.02" y="126.83" width="137.66" height="188.66" rx="12"/><rect class="cls-7" x="197.4" y="120.38" width="137.66" height="188.66" rx="12"/><path class="cls-8" d="M266.23,120.38h57a11.87,11.87,0,0,1,11.87,11.87V297.16A11.87,11.87,0,0,1,323.18,309h-57a0,0,0,0,1,0,0V120.38A0,0,0,0,1,266.23,120.38Z"/><rect class="cls-9" x="218.93" y="164.12" width="94.59" height="9.09"/><rect class="cls-9" x="218.93" y="179.42" width="94.59" height="9.09"/><rect class="cls-9" x="218.93" y="194.71" width="94.59" height="9.09"/><rect class="cls-9" x="218.93" y="210.01" width="94.59" height="9.09"/><rect class="cls-9" x="218.93" y="235.03" width="94.59" height="9.09"/><rect class="cls-9" x="218.93" y="247.59" width="94.59" height="9.09"/><rect class="cls-9" x="266.23" y="263.65" width="47.3" height="9.09"/><rect class="cls-9" x="218.93" y="141.97" width="47.3" height="9.09"/><ellipse class="cls-10" cx="136.25" cy="322.5" rx="42.73" ry="4.38"/><rect class="cls-11" x="143.49" y="302.69" width="5.66" height="5.66" transform="translate(-140.99 126.06) rotate(-32.42)"/><path class="cls-12" d="M149.35,303.47l-5.88,3.74s2.41,3.35,1.71,5-3.49,3.46-4.55,4.74a4.83,4.83,0,0,0-.6,4c.18.43,15.8-10,15.8-10Z"/><rect class="cls-11" x="125.6" y="309.75" width="5.66" height="5.66"/><path class="cls-13" d="M107.05,191l-10.11,4.29s5.33,11.72,5.46,12.2.29,1.28.29,1.28l4.71,0a10.76,10.76,0,0,1,.39-2.67.68.68,0,0,1,1.1,0,17.06,17.06,0,0,1,.3,2.88l4.47-1.58Z"/><path class="cls-14" d="M115.17,219.41l-5.87-9.33s0-3.07-.41-3.94c-.17-.31-1.18-.8-1.34.79s-.15,1.85-.15,1.85l-4.71,0a6.31,6.31,0,0,0-.47-1.66c-.19-.12-1.37,1.86-.15,4.24s1.26,1.37,2.52,2.77,5.66,10.5,5.66,10.5Z"/><path class="cls-15" d="M148.22,248.71H117.14l.85-14-9.75-8.13,6.89-7.8,4.94,4.22,7.41-18.66,17.69-.52S149.65,219.81,148.22,248.71Z"/><path class="cls-16" d="M122.15,248.71s-3,17.54-3.71,27.63c.43,7.16,0,34.92,0,34.92H134.7l-.52-35.57,3.44-27Z"/><polygon class="cls-17" points="137.62 248.71 146.2 248.71 139.6 276.13 149.13 301.38 136.26 309.78 134.66 306.85 134.18 275.69 137.62 248.71"/><path class="cls-14" d="M122.9,180.94a8.59,8.59,0,0,0-1.6,4.75c0,2.68.15,2.83.08,3.54a21.61,21.61,0,0,0-.37,2.56c0,.9,1.32.48,1.32.48s0,4.56,3.22,4.59,3.72,4.6,1.93,7.44,15.43.36,15.43.36l-11.56-20.43-6.63-4.29Z"/><path class="cls-18" d="M147.34,192.68c1.08-1.92,1.25-4.25-1.91-7.37-1.73-1.72-3.3-1.65-4.39-.68C144.79,191,145.63,191.45,147.34,192.68Z"/><path class="cls-19" d="M151,195.88a23.58,23.58,0,0,0-3.61-3.2c-1.71-1.23-2.55-1.66-6.3-8.05-.34-.57-.69-1.18-1.07-1.85-7.32-12.77-17.07-1.84-17.07-1.84,1.75,3.07,5.75,3,7,4.6,4.66,6.17-6.34,24.05,15.89,26.53C157.34,213.36,157,202.22,151,195.88Z"/><path class="cls-12" d="M132.08,312.48h-7s.24,4.12-1.22,5.12-4.8,1-6.39,1.56a4.88,4.88,0,0,0-2.63,3c-.08.47,18.72,0,18.72,0Z"/><polygon class="cls-20" points="96.94 195.27 102.4 188.6 104.89 191.9 96.94 195.27"/><circle class="cls-21" cx="141.28" cy="184.62" r="1.14"/><circle class="cls-22" cx="140.23" cy="184.49" r="0.68"/><polygon class="cls-23" points="115.13 218.74 117.16 220.47 111.9 229.59 108.23 226.54 115.13 218.74"/><rect class="cls-24" x="100.13" y="196.42" width="6.73" height="0.79" transform="translate(-67.04 54.11) rotate(-22.34)"/><rect class="cls-24" x="100.83" y="198.13" width="6.73" height="0.79" transform="translate(-67.64 54.51) rotate(-22.34)"/><rect class="cls-24" x="101.54" y="199.84" width="6.73" height="0.79" transform="translate(-68.24 54.9) rotate(-22.34)"/><rect class="cls-24" x="102.24" y="201.54" width="6.73" height="0.79" transform="translate(-68.83 55.3) rotate(-22.34)"/><rect class="cls-24" x="102.94" y="203.25" width="6.73" height="0.79" transform="translate(-69.43 55.69) rotate(-22.34)"/><circle class="cls-19" cx="146.54" cy="186.45" r="1.5"/><path class="cls-25" d="M361,70.22a42.07,42.07,0,0,0-29.84-12.36v5.82a36.39,36.39,0,0,1,0,72.77v5.82A42.21,42.21,0,0,0,361,70.22ZM358,73.3Z"/><g class="cls-26"><path class="cls-27" d="M334.76,120.38H286.24A46.15,46.15,0,0,0,328.92,149a45,45,0,0,0,5.84-.38Z"/></g><circle class="cls-9" cx="331.19" cy="100.07" r="42.21"/><path class="cls-28" d="M301.34,129.91a42.21,42.21,0,1,0,0-59.69A42.21,42.21,0,0,0,301.34,129.91Zm29.85-66.23a36.39,36.39,0,1,1-36.39,36.39A36.43,36.43,0,0,1,331.19,63.68Zm-26.77,63.15h0ZM358,73.3h0Zm-53.54,0Z"/><circle class="cls-29" cx="331.19" cy="100.07" r="31.14"/><path class="cls-30" d="M309.17,78.05l44,44a31.14,31.14,0,1,0-44-44Z"/><circle class="cls-31" cx="266.23" cy="71.71" r="7.21"/><circle class="cls-32" cx="197.4" cy="78.28" r="7.38"/><circle class="cls-33" cx="364.83" cy="162.26" r="5.19"/><path class="cls-9" d="M141.67,161.86a.88.88,0,0,0,0-.71,12.91,12.91,0,1,1,5.4,5.4.87.87,0,0,0-.42-.1.77.77,0,0,0-.29.05l-6.37,2.19a.35.35,0,0,1-.37-.09.33.33,0,0,1-.08-.37Z"/><path class="cls-15" d="M137.8,167.65a2.13,2.13,0,0,0,2.72,2.72l6-2.06a14.71,14.71,0,0,0,6.5,1.52h0a14.73,14.73,0,0,0,13.61-20.35,14.7,14.7,0,0,0-13.85-9.09,14.75,14.75,0,0,0-14.48,14.74,14.78,14.78,0,0,0,1.52,6.51Zm1.69.58,2.18-6.37a.88.88,0,0,0,0-.71,12.91,12.91,0,1,1,5.4,5.4.87.87,0,0,0-.42-.1.77.77,0,0,0-.29.05l-6.37,2.19a.35.35,0,0,1-.37-.09A.33.33,0,0,1,139.49,168.23Z"/><path class="cls-32" d="M148.74,157.07a1.63,1.63,0,0,0,0-3.26,1.63,1.63,0,0,0-1.15,2.78,1.58,1.58,0,0,0,1.15.48Z"/><path class="cls-32" d="M153.31,157.07a1.64,1.64,0,0,0,1.15-.48,1.62,1.62,0,0,0,0-2.3,1.64,1.64,0,0,0-1.15-.48,1.62,1.62,0,0,0-1.14,2.78,1.54,1.54,0,0,0,1.14.48Z"/><path class="cls-32" d="M157.89,157.07a1.63,1.63,0,0,0,0-3.26,1.63,1.63,0,0,0-1.15,2.78,1.58,1.58,0,0,0,1.15.48Z"/><circle class="cls-34" cx="171.66" cy="114.35" r="5.5"/><circle class="cls-33" cx="236.72" cy="94.86" r="5.54"/><circle class="cls-2" cx="416.2" cy="102.84" r="12.78"/><path class="cls-25" d="M126.51,77.26A3.53,3.53,0,0,1,123,73.73v-5a3.53,3.53,0,0,1,7,0v5A3.53,3.53,0,0,1,126.51,77.26Z"/><path class="cls-25" d="M126.51,102.89A3.53,3.53,0,0,1,123,99.36v-5a3.53,3.53,0,1,1,7,0v5A3.53,3.53,0,0,1,126.51,102.89Z"/><path class="cls-25" d="M141.83,87.57h-5a3.53,3.53,0,1,1,0-7h5a3.53,3.53,0,0,1,0,7Z"/><path class="cls-25" d="M116.2,87.57h-5a3.53,3.53,0,1,1,0-7h5a3.53,3.53,0,1,1,0,7Z"/><circle class="cls-2" cx="457.26" cy="194.16" r="10.2"/><path class="cls-25" d="M404.54,172.56a3.35,3.35,0,0,1-3.35-3.35v-4.76a3.35,3.35,0,1,1,6.7,0v4.76A3.35,3.35,0,0,1,404.54,172.56Z"/><path class="cls-25" d="M404.54,196.89a3.35,3.35,0,0,1-3.35-3.35v-4.76a3.35,3.35,0,0,1,6.7,0v4.76A3.35,3.35,0,0,1,404.54,196.89Z"/><path class="cls-25" d="M419.09,182.35h-4.76a3.35,3.35,0,1,1,0-6.7h4.76a3.35,3.35,0,0,1,0,6.7Z"/><path class="cls-25" d="M394.75,182.35H390a3.35,3.35,0,0,1,0-6.7h4.76a3.35,3.35,0,1,1,0,6.7Z"/><ellipse class="cls-10" cx="370.02" cy="353.91" rx="65.19" ry="9.29"/><circle class="cls-32" cx="174.47" cy="239.58" r="6.69"/><circle class="cls-2" cx="75.98" cy="295.29" r="16.78"/><path class="cls-35" d="M326.11,113.87v4.21a4.28,4.28,0,0,0,4.33,4.21h0a4.28,4.28,0,0,0,4.33-4.21v-4.21Z"/><path class="cls-36" d="M326.11,113.47h8.66v-.27a8.26,8.26,0,0,1,3.49-6.64,12.48,12.48,0,0,0,5.18-10.09,13,13,0,0,0-26-.71,12.47,12.47,0,0,0,5.2,10.82,8.14,8.14,0,0,1,3.45,6.55Z"/><path class="cls-25" d="M330.44,83.86v29.61h4.33v-.27a8.26,8.26,0,0,1,3.49-6.64,12.48,12.48,0,0,0,5.18-10.09A12.81,12.81,0,0,0,330.44,83.86Z"/><ellipse class="cls-37" cx="330.44" cy="99.63" rx="4.99" ry="4.84"/><g class="cls-38"><rect class="cls-15" x="322.08" y="114.67" width="15.59" height="0.95"/><rect class="cls-15" x="322.08" y="116.56" width="15.59" height="0.95"/><rect class="cls-15" x="322.08" y="118.46" width="15.59" height="0.95"/><rect class="cls-15" x="322.08" y="120.35" width="15.59" height="0.95"/></g><path class="cls-32" d="M331.31,79.44a1.1,1.1,0,0,0,1.08-1.12V74.89a1.06,1.06,0,0,0-1.1-1.09,1,1,0,0,0-1.07,1.08q0,1.73,0,3.45A1.07,1.07,0,0,0,331.31,79.44Z"/><path class="cls-32" d="M308.53,89.15l2.43,1.4A2,2,0,0,0,312,91a1.07,1.07,0,0,0,1.07-1.09,1.19,1.19,0,0,0-.69-1l-2.81-1.61a1,1,0,0,0-.78-.16,1.08,1.08,0,0,0-.89.91A1.12,1.12,0,0,0,308.53,89.15Z"/><path class="cls-32" d="M353,89.15c-.81.46-1.62.94-2.44,1.4a2,2,0,0,1-1.07.44,1.08,1.08,0,0,1-1.08-1.09,1.2,1.2,0,0,1,.7-1l2.81-1.61a1,1,0,0,1,.78-.16,1.09,1.09,0,0,1,.89.91A1.13,1.13,0,0,1,353,89.15Z"/><path class="cls-32" d="M313.73,109.1a1.39,1.39,0,0,0,0-.32,1.08,1.08,0,0,0-1.66-.64l-3,1.72a1.09,1.09,0,0,0,1.06,1.9l3.07-1.78A1,1,0,0,0,313.73,109.1Z"/><path class="cls-32" d="M348.9,109.1a2.58,2.58,0,0,1,0-.32,1.08,1.08,0,0,1,1.66-.64l3,1.72a1.09,1.09,0,0,1-1.05,1.9c-1-.59-2.06-1.18-3.08-1.78A1,1,0,0,1,348.9,109.1Z"/><path class="cls-32" d="M355.84,98.41h-3.41a1.07,1.07,0,0,0-1,.45,1,1,0,0,0,.13,1.38.8.8,0,0,0,.73.33q1.76,0,3.51,0a1.08,1.08,0,0,0,0-2.16Z"/><path class="cls-32" d="M310.1,98.41h-3.4a1.08,1.08,0,0,0-1,.45,1,1,0,0,0,.13,1.38.8.8,0,0,0,.73.33q1.76,0,3.51,0a1.08,1.08,0,0,0,0-2.16Z"/><path class="cls-32" d="M318.71,83.69a1.39,1.39,0,0,0,.32,0,1.09,1.09,0,0,0,.64-1.66L318,79a1.09,1.09,0,0,0-1.9,1l1.78,3.08A1,1,0,0,0,318.71,83.69Z"/><path class="cls-32" d="M343.66,83.69a1.39,1.39,0,0,1-.32,0A1.09,1.09,0,0,1,342.7,82l1.72-3a1.09,1.09,0,0,1,1.9,1l-1.77,3.08A1,1,0,0,1,343.66,83.69Z"/><path class="cls-25" d="M330.44,94.79a4.84,4.84,0,1,0,0,9.68Z"/><rect class="cls-15" x="326.11" y="112.63" width="8.67" height="0.85"/><path class="cls-39" d="M331.82,103.33a7,7,0,0,0,1.83-.76l1.74,1.32,1.6-1.57-1.36-1.75a5.41,5.41,0,0,0,.76-1.79l2.22-.29,0-2.26L336.42,96a6.81,6.81,0,0,0-.77-1.83L337,92.38l-1.62-1.57-1.76,1.35a5.32,5.32,0,0,0-1.79-.76l-.3-2.22-2.25,0L329,91.38a6.87,6.87,0,0,0-1.84.77l-1.74-1.33-1.51,1.6,1.35,1.75a5.41,5.41,0,0,0-.76,1.79l-2.22.3,0,2.25,2.16.28a7.12,7.12,0,0,0,.76,1.83l-1.33,1.74,1.57,1.6,1.75-1.35a5.41,5.41,0,0,0,1.79.76l.3,2.22,2.25,0Zm-1.4-4.2a1.79,1.79,0,1,1,1.79-1.78A1.74,1.74,0,0,1,330.42,99.13Z"/><path class="cls-15" d="M327.11,94.54a4.4,4.4,0,0,0,.53,6.11,4.34,4.34,0,1,0-.53-6.11Zm5.53,4.66a2.9,2.9,0,1,1-.35-4.08A2.91,2.91,0,0,1,332.64,99.2Z"/><path class="cls-40" d="M197.51,267.23a48.22,48.22,0,0,0-7.49,2v15.46h7.49Z"/><path class="cls-41" d="M237.18,309H254a48.26,48.26,0,0,0-56.45-41.81v17.43H190v30.83h64.27v-.08H237.18Z"/><path class="cls-40" d="M254,309H237.18v6.37h17.11c0-.22,0-.44,0-.66A48.77,48.77,0,0,0,254,309Z"/><circle class="cls-9" cx="206.03" cy="314.75" r="42.21"/><path class="cls-32" d="M176.19,344.59a42.21,42.21,0,1,0,0-59.69A42.21,42.21,0,0,0,176.19,344.59ZM206,278.36a36.39,36.39,0,1,1-36.38,36.39A36.43,36.43,0,0,1,206,278.36Zm-26.77,63.15h0ZM232.8,288Zm-53.53,0h0Z"/><circle class="cls-42" cx="206.03" cy="314.75" r="31.14"/><path class="cls-43" d="M184,292.73l44,44a31.14,31.14,0,1,0-44-44Z"/><path class="cls-15" d="M225.17,302.21l-24.91,24.92L191.14,318a4.3,4.3,0,1,0-6.07,6.08l12.15,12.17a4.32,4.32,0,0,0,6.08,0l27.95-28a4.3,4.3,0,0,0-6.08-6.08Zm0,0"/><path class="cls-25" d="M223,297.73l-24.9,24.91L189,313.52a4.3,4.3,0,0,0-6.07,6.08l12.16,12.16a4.27,4.27,0,0,0,3,1.26,4.32,4.32,0,0,0,3-1.26l27.94-27.95a4.3,4.3,0,1,0-6.08-6.08Zm0,0"/><path class="cls-44" d="M235.88,284.9A42.09,42.09,0,0,0,206,272.54v5.82a36.39,36.39,0,1,1,0,72.77V357a42.21,42.21,0,0,0,29.85-72.05ZM232.8,288Z"/><polygon class="cls-23" points="117.14 259.34 148.22 259.34 148.74 244.12 116.75 244.12 117.14 259.34"/><rect class="cls-15" x="117.14" y="254.46" width="31.24" height="4.88"/><rect class="cls-15" x="116.75" y="248.13" width="31.98" height="1.86"/><path class="cls-45" d="M382.52,223.33,381,223a.47.47,0,0,0-.51.21l-.05.41a.46.46,0,0,0,.34.31l.79.2a12.3,12.3,0,0,1-2.58.9h-.22a.82.82,0,0,1-.55-.26.39.39,0,0,1,0-.46.68.68,0,0,1,.44-.21,1.17,1.17,0,0,0,.42-.09l.06-.48a.86.86,0,0,0-.26-.2,2.4,2.4,0,0,0-1-.16,3.13,3.13,0,0,0-2.46,1.15,15.11,15.11,0,0,1-.93,1.29,4.74,4.74,0,0,1-.94.73l-.12.08h0l-1.72.79-.16.08-2.94,1.35-.16.07-2.88,1.33-6.77,3.12h0L354,234.78l-2.79,2.3.33.75a5.1,5.1,0,0,0,6.75,2.56,4.73,4.73,0,0,0,.45-.23L369,234.25l2.69-1.54.16-.09,2.74-1.58.16-.09.63-.36a4.07,4.07,0,0,1,1.1-.41l.2,0a7.93,7.93,0,0,1,1.62-.07c.85,0,2.84,0,3.45,0a.85.85,0,0,0,.71-1,2.66,2.66,0,0,1-.1-.49c0-.12,0-.24,0-.36,0-.27-.29-.46-.35-.72s.09-.56,0-.82-.49-.45-.47-.74c0,0,.76-.66,1.25-1.06S383.62,223.61,382.52,223.33Z"/><polygon class="cls-46" points="368.81 227.21 371.08 234.43 356.67 242.38 354.76 233.34 368.81 227.21"/><rect class="cls-47" x="377.02" y="255.16" width="32.26" height="1.76"/><rect class="cls-48" x="380.71" y="254.59" width="22.71" height="0.57"/><rect class="cls-47" x="408.25" y="230.25" width="1.5" height="26.27" transform="translate(89.01 -108.92) rotate(17)"/><rect class="cls-49" x="391.11" y="260.74" width="1.91" height="93.78"/><rect class="cls-49" x="396.02" y="260.74" width="1.91" height="93.78"/><rect class="cls-11" x="344.87" y="256.87" width="84.11" height="4.54"/><path class="cls-45" d="M364.51,248.72l11.42.33s4.18-3.42,4.73-3.68,6.62.19,8.72.25c.47,0,.69.93,0,1a34.55,34.55,0,0,0-6.35.5,1.29,1.29,0,0,0-.95,1.28,50.29,50.29,0,0,1,6,.92c.3.16.2.48.2.58,0,.4-6.09.17-6.09.17a5.89,5.89,0,0,1-3.74,4.33c-3.17,1-14.17,2-14.17,2l.22-7.64"/><path class="cls-45" d="M388.65,247.37c.1-.62-.67-.76-.67-.76l-4.33.06-.64.42S388.54,248,388.65,247.37Z"/><path class="cls-45" d="M340.41,214.33a8.64,8.64,0,0,0,.25-3.45,44,44,0,0,0-1.64-7.43l4.07-7.07,5.72,1.5,4.78-5.72s2,3.29,2.15,5.29a7.32,7.32,0,0,0,1.28,4c.39.39.72,1.61,0,2.07a12.57,12.57,0,0,0-1.43,1.15s.57,2.5-.5,3.78-3.85,2.43-3.93,3.57a21.63,21.63,0,0,1-.51,2.95Z"/><polygon class="cls-49" points="341.81 292.18 334.28 292.18 320.57 354.52 326 354.52 341.81 292.18"/><polygon class="cls-49" points="351.2 292.18 358.72 292.18 372.44 354.52 367.01 354.52 351.2 292.18"/><rect class="cls-11" x="330.79" y="285.2" width="31.02" height="7"/><polygon class="cls-15" points="368.46 295.03 343.45 326.12 354.81 337.17 375.67 308.98 368.46 295.03"/><path class="cls-50" d="M378.35,338.3l16.94-1.13-7.85-41.61s.36-6.4-11.57-14.87-19.41-13.84-19.41-13.84v-2.06l-25,3.41s-2.22,7.28,1.34,13.11,13.84,4.54,13.84,4.54,12.53,2.45,18.79,7.95,8.84,17.49,8.84,17.49Z"/><polygon class="cls-32" points="385.36 337.85 385.87 346.98 378.23 346.98 379.36 343.88 378.54 338.3 385.36 337.85"/><path class="cls-51" d="M379.31,343.52s-2.75,3.34-3.54,4.47c-.32.46-.92.71,2.46,2.75s9,5.55,12.34,6.51c.81.23,3.64.33,2.94-1.65s-5.34-5.53-6.2-7.13a11.4,11.4,0,0,0-1.48-2.27,6.08,6.08,0,0,1-3.63.47C380.65,346.18,379.31,343.52,379.31,343.52Z"/><path class="cls-52" d="M386.89,347.72c-.75.47-.77.5-3.46,1.32"/><path class="cls-52" d="M387.54,348.83c-.73.49-.81.52-3.5,1.34"/><path class="cls-52" d="M388.52,350c-.68.58-.78.53-3.47,1.35"/><polygon class="cls-32" points="343.45 326.12 340.47 328.48 339.46 330.69 342.65 333.42 346.08 332.74 347.39 329.95 343.45 326.12"/><path class="cls-51" d="M340.47,328.48S337,331,335.9,331.91c-.43.36-1.07.45,1.68,3.29s7.27,7.65,10.27,9.43c.73.43,3.43,1.25,3.27-.85s-3.76-6.7-4.18-8.46a10.9,10.9,0,0,0-.86-2.58,6.12,6.12,0,0,1-3.62-.47C341.09,331.4,340.47,328.48,340.47,328.48Z"/><path class="cls-52" d="M346.73,334.48c-.85.26-.88.28-3.69.39"/><path class="cls-52" d="M347.07,335.72c-.83.29-.92.3-3.72.41"/><path class="cls-52" d="M347.73,337.05c-.8.39-.89.32-3.69.42"/><path class="cls-53" d="M350.65,215s-9.47-2.19-10.06-2.35-1.12,3.53-3.42,5.67a19.15,19.15,0,0,0-6.74,17.65c1.23,10.39,1.05,32.26,1.05,32.26l25-3.41s2.22-22.12,1.68-30.24C357.8,229.32,356.65,224.92,350.65,215Z"/><path class="cls-32" d="M371.64,246.54v10.38H348s-6,1.55-8.24-3.75-4.07-17.17-4.07-23.65c0-2,.54-5.61,5.35-5.67s6.1,1.34,6.53,3.75c.8,4.48,2.25,18.08,2.25,18.08Z"/><polygon class="cls-51" points="331.48 268.2 356.46 264.79 356.67 262.69 331.49 265.9 331.48 268.2"/><polygon class="cls-50" points="335.9 265.34 337.22 265.17 337.53 267.37 336.18 267.56 335.9 265.34"/><polygon class="cls-50" points="348.54 263.73 349.86 263.56 350.17 265.76 348.82 265.94 348.54 263.73"/><circle class="cls-54" cx="380.5" cy="339.61" r="0.65"/><circle class="cls-54" cx="383.39" cy="345.27" r="0.65"/><circle class="cls-54" cx="384.04" cy="339.39" r="0.65"/><circle class="cls-54" cx="381.15" cy="343.72" r="0.65"/><circle class="cls-54" cx="382.94" cy="341.85" r="0.65"/><path class="cls-54" d="M385.72,344.38a.67.67,0,0,1-.67-.66.61.61,0,0,1,.6-.65Z"/><circle class="cls-54" cx="343.04" cy="331.05" r="0.65"/><circle class="cls-54" cx="343.9" cy="328.55" r="0.65"/><circle class="cls-54" cx="345.79" cy="330.37" r="0.65"/><path class="cls-54" d="M342.32,327a.65.65,0,0,1-.08.92.69.69,0,0,1-.95-.1Z"/><rect class="cls-51" x="355.27" y="197.67" width="0.71" height="5.03"/><rect class="cls-51" x="348.84" y="199.21" width="6.88" height="0.6" transform="translate(30.38 -46.03) rotate(7.81)"/><path class="cls-55" d="M343,205.81a4.49,4.49,0,0,1-2.64,2.43c-2,.64-5.18-1-5.36-2s-.39-4.18-.5-4.5a10.82,10.82,0,0,1-.64-4.29c.25-1.68-1.25-3.57-1.07-4.5a9.91,9.91,0,0,1,3.64-4.86c2.21-1.64,1-2.14,2.43-2.64s3.14.43,4.71-.36,3-1.85,5.43-.43,5.29-1.14,6.14,4.86-3.81,12-6.71,10.72c-.9-.39-.5-2.57-3-2.5C340.74,197.87,343,205.81,343,205.81Z"/><rect class="cls-51" x="379.44" y="215.19" width="1.03" height="15.56" transform="translate(33.83 -49.57) rotate(7.81)"/></svg>