<svg id="Layer_1" data-name="Layer 1" xmlns="http://www.w3.org/2000/svg" viewBox="0 0 59.84 43.99"><defs><style>.cls-1{fill:#fff;}.cls-2{fill:#464958;}.cls-3{fill:#71ae87;}.cls-4{fill:#90b89d;}.cls-5{fill:#669877;}</style></defs><rect class="cls-1" x="20.82" y="16.66" width="26.21" height="13.5" transform="translate(26.49 -17.13) rotate(45)"/><rect class="cls-1" x="2.43" y="17.46" width="40.34" height="14.01" transform="translate(23.92 -8.82) rotate(45)"/><path class="cls-2" d="M12.86,23.28a.89.89,0,0,1-.51-.33L5,15.62a4.27,4.27,0,0,0-.54-.5.77.77,0,0,0-1.09.05.76.76,0,0,0,0,1.08,5.24,5.24,0,0,0,.51.54c2.36,2.36,4.7,4.74,7.09,7.07.43.42.56.7.28,1.07Z"/><path class="cls-2" d="M22.79,13.36a1,1,0,0,1-.52-.33Q18.61,9.36,14.92,5.7a5.24,5.24,0,0,0-.54-.51.76.76,0,0,0-1.08.06.75.75,0,0,0-.05,1.08,5.33,5.33,0,0,0,.52.54c2.35,2.36,4.7,4.73,7.08,7.06.43.42.56.71.29,1.08Z"/><rect class="cls-3" x="10.04" y="21.98" width="5.71" height="10.62" rx="2.85" transform="translate(23.07 -1.13) rotate(45)"/><rect class="cls-4" x="14.08" y="26.01" width="5.71" height="10.62" rx="2.85" transform="translate(27.11 -2.8) rotate(45)"/><rect class="cls-3" x="18.12" y="30.05" width="5.71" height="10.62" rx="2.85" transform="translate(31.15 -4.47) rotate(45)"/><rect class="cls-4" x="22.15" y="34.09" width="5.71" height="10.62" rx="2.85" transform="translate(35.18 -6.14) rotate(45)"/><rect class="cls-5" x="42.7" y="4.35" width="18.94" height="6.63" rx="3.32" transform="translate(20.7 -34.64) rotate(45)"/><path class="cls-3" d="M31.7,12.58Q38.15,19,44.56,25.4l1.79-1.65c2.21-2.14,4.37-4.32,6.58-6.45a.85.85,0,0,0,0-1.21C50,13.19,47,10.25,44,7.37c-1.46-1.4-2.71-3-5.57-2.83A9.34,9.34,0,0,1,32.55,3C28.72.26,24.2,1.21,22.49,5c-1.51,3.35-3,6.74-4.41,10.12a3.44,3.44,0,0,0,1.82,4.61A3.48,3.48,0,0,0,24.49,18c.14-.29.26-.59.39-.88a27.43,27.43,0,0,1,1.83-3.92A3.2,3.2,0,0,1,31.7,12.58Z"/><rect class="cls-2" x="0.15" y="6.39" width="15.68" height="6.92" transform="translate(-4.63 8.54) rotate(-45)"/><path class="cls-2" d="M48.17,27.55a5.59,5.59,0,0,0-2.06-2.93,1,1,0,0,1-.28-.4l-.07.06L33.52,12a.82.82,0,0,0-1.17,0,.83.83,0,0,0,0,1.17L44.73,25.59h0q.55.57,1.14,1.14a2,2,0,0,1,.65,1.22,2,2,0,0,1-1.06,2,1.89,1.89,0,0,1-2.38-.44c-1.63-1.61-3.24-3.23-4.87-4.85a12.51,12.51,0,0,0-.94-.84A.8.8,0,0,0,36.14,25a5.27,5.27,0,0,0,.5.55c1.76,1.76,3.53,3.52,5.28,5.29a2,2,0,0,1-.18,3A2.09,2.09,0,0,1,39,33.53c-1.73-1.71-3.45-3.45-5.18-5.17a3.76,3.76,0,0,0-.55-.5A.81.81,0,0,0,32.2,28,.75.75,0,0,0,32.15,29a6.39,6.39,0,0,0,.5.54c1.74,1.72,3.49,3.41,5.2,5.15a2,2,0,0,1,.06,2.94A2.09,2.09,0,0,1,35,37.49c-.92-.9-1.84-1.82-2.76-2.73S30.34,32.89,29.4,32a.82.82,0,1,0-1.18,1.14c.16.19.34.36.52.54,1.71,1.7,3.43,3.39,5.12,5.11a2,2,0,0,1,0,2.88A2,2,0,0,1,31,41.55c-.61-.59-1.19-1.21-1.81-1.79a.91.91,0,0,1-.35-.61l-1.6,1.6c.24-.17.45-.12.74.18a24.88,24.88,0,0,0,2.07,2,3.66,3.66,0,0,0,6.06-2.41c0-.51.22-.65.71-.7a3.62,3.62,0,0,0,3.32-3.37c0-.49.23-.61.68-.65a3.49,3.49,0,0,0,3.3-3.11c.09-.67.32-.85.93-.91A3.63,3.63,0,0,0,48.17,27.55Z"/></svg>